# Blender v3.0.1 OBJ File: ''
# www.blender.org
mtllib forearmfleshrleft.mtl
o Stank_Gum.009_Stank_Gum.010
v 1.830720 4.343325 3.127105
v 2.190820 4.248728 3.151505
v 1.769721 5.338229 1.973505
v 2.230520 5.405428 1.808704
v 1.174621 6.122531 1.405805
v 1.470620 6.333125 1.112905
v 0.075921 6.855029 1.070104
v 0.091220 6.482730 1.375305
v -1.132578 6.736025 1.857505
v -0.943379 6.546824 2.019305
v -1.767380 5.875330 2.846305
v -2.136679 6.186625 2.937905
v -1.892479 5.060526 3.728305
v -2.264880 5.243624 4.070105
v -1.300478 4.291430 4.509604
v -1.520180 4.209024 4.955105
v -0.021680 3.815325 4.900205
v 0.045421 3.601725 5.324405
v 1.388221 3.592631 4.540105
v 1.147121 3.742129 4.216604
v -0.134679 2.295527 1.564504
v -0.818280 1.892725 2.681504
v -1.938279 0.537730 0.520804
v -2.606678 0.348429 1.494305
v -2.429678 -0.051275 0.111803
v -1.849780 2.030024 3.435304
v -3.155980 -0.231374 1.094504
v -2.731780 -0.106275 -0.037697
v -3.354380 -0.332075 0.911404
v -4.156981 -0.277174 1.430205
v -4.169180 -0.112371 1.646904
v -3.513079 0.556025 2.043704
v -3.003378 2.820429 3.533005
v -3.540480 3.897730 2.818805
v -3.400080 4.645525 1.836104
v -4.553679 1.187724 1.939904
v -5.035880 2.240626 1.283805
v -2.606678 5.240626 0.652005
v -4.861979 -0.652570 1.546204
v -4.855879 -0.719671 1.411904
v -5.771380 -0.618970 1.158604
v -5.783579 -0.802076 0.957203
v -5.298380 0.412524 1.445504
v -7.031779 -0.875272 0.023304
v -7.053179 -1.137769 -0.144497
v -7.157763 -0.837110 -0.773016
v -7.173060 -1.108709 -0.806515
v -7.603362 -1.145314 -1.856415
v -7.337862 -1.490209 -1.996815
v -7.304263 -1.194112 -2.503414
v -7.356162 -0.791310 -2.317215
v -6.376460 -0.071111 -2.656015
v -6.989962 -0.342710 -1.761814
v -6.397860 0.133388 -2.448416
v -5.642195 0.670100 -2.804460
v -6.768397 0.120807 -1.034361
v -5.590296 0.969203 -2.609161
v -4.498778 1.523425 -3.135295
v -6.255698 0.648807 -1.824760
v -6.859896 -0.321698 -0.240860
v -5.951479 1.322024 -1.465995
v -6.448878 0.546824 -0.532097
v -6.323779 -0.133672 0.606203
v -5.536379 1.419627 0.505505
v -4.791781 3.003627 0.182004
v -3.958579 3.339328 -0.840295
v -5.319781 2.255824 -0.583995
v -5.286181 1.685229 -2.421196
v -4.514079 1.770625 -3.077297
v -3.134579 1.685230 -2.827096
v -4.333979 2.451228 -1.795596
v -3.000380 1.935428 -2.775196
v -2.869080 2.551928 -2.097696
v -2.112278 1.560031 -1.865797
v -1.849780 1.889629 -1.902397
v -2.600579 3.223331 -1.493396
v -1.529379 2.487826 -1.291995
v -1.877280 0.772624 -0.870895
v -2.161080 0.659724 -0.940996
v -1.419480 1.361728 -0.428297
v 0.109521 3.153125 0.517705
v -0.326880 4.285327 -0.104796
v -1.309578 5.103229 -0.129294
vt 0.633700 0.782800
vt 0.633700 0.775900
vt 0.615600 0.782800
vt 0.615200 0.775900
vt 0.601600 0.782800
vt 0.601500 0.775900
vt 0.586500 0.775900
vt 0.586600 0.782800
vt 0.571200 0.775900
vt 0.570800 0.782800
vt 0.554000 0.782800
vt 0.554000 0.775900
vt 0.537700 0.782800
vt 0.537700 0.775900
vt 0.520700 0.782800
vt 0.521200 0.775900
vt 0.504500 0.782800
vt 0.504700 0.775900
vt 0.490600 0.775900
vt 0.489900 0.782800
vt 0.475100 0.775900
vt 0.475100 0.782800
vt 0.475100 0.769700
vt 0.490600 0.769700
vt 0.475100 0.732000
vt 0.491100 0.732300
vt 0.504700 0.769700
vt 0.475100 0.701500
vt 0.493100 0.702700
vt 0.475100 0.691700
vt 0.507100 0.734500
vt 0.521200 0.769700
vt 0.493300 0.693100
vt 0.475100 0.687900
vt 0.494900 0.690800
vt 0.505500 0.689300
vt 0.507700 0.691900
vt 0.508300 0.703900
vt 0.524600 0.737800
vt 0.537700 0.769700
vt 0.539000 0.739700
vt 0.551500 0.739500
vt 0.523700 0.703300
vt 0.538700 0.705000
vt 0.554000 0.769700
vt 0.567400 0.739600
vt 0.571200 0.769700
vt 0.508800 0.682100
vt 0.506900 0.680000
vt 0.515500 0.674200
vt 0.514000 0.670300
vt 0.521600 0.687800
vt 0.524200 0.656500
vt 0.522400 0.652300
vt 0.533300 0.637000
vt 0.531400 0.633700
vt 0.540400 0.625600
vt 0.539400 0.620600
vt 0.547600 0.620800
vt 0.547000 0.626100
vt 0.558800 0.634200
vt 0.545900 0.635300
vt 0.557300 0.637700
vt 0.570100 0.649300
vt 0.544800 0.651400
vt 0.568900 0.654100
vt 0.582500 0.667300
vt 0.556900 0.653200
vt 0.534400 0.652700
vt 0.555200 0.670900
vt 0.540200 0.668100
vt 0.525100 0.670700
vt 0.538300 0.688500
vt 0.553000 0.704900
vt 0.567800 0.704900
vt 0.554300 0.689000
vt 0.569200 0.670600
vt 0.580600 0.670900
vt 0.594100 0.679200
vt 0.572400 0.687400
vt 0.592500 0.683400
vt 0.588000 0.694300
vt 0.605600 0.690800
vt 0.601900 0.696200
vt 0.584700 0.706700
vt 0.600500 0.707500
vt 0.619200 0.694900
vt 0.620800 0.689700
vt 0.633700 0.687900
vt 0.633700 0.691700
vt 0.633700 0.701500
vt 0.618300 0.705100
vt 0.633700 0.732000
vt 0.615200 0.733200
vt 0.633700 0.769700
vt 0.615200 0.769700
vt 0.597900 0.736500
vt 0.601500 0.769700
vt 0.586500 0.769700
vt 0.583600 0.739300
vn 0.1542 0.7522 0.6406
vn 0.1479 0.7519 0.6425
vn 0.1466 0.7067 0.6921
vn 0.1509 0.7075 0.6904
vn 0.2083 0.6709 0.7117
vn 0.2136 0.6781 0.7032
vn 0.2964 0.6180 0.7282
vn 0.2970 0.6185 0.7275
vn 0.2926 0.6265 0.7224
vn 0.2966 0.7098 0.6390
vn 0.2426 0.7591 0.6041
vn 0.2966 0.7098 0.6389
vn 0.5531 0.5067 0.6613
vn 0.5933 0.4880 0.6402
vn 0.6616 0.6316 0.4042
vn 0.6573 0.6385 0.4004
vn 0.4272 0.8349 0.3471
vn 0.3883 0.8477 0.3614
vn 0.4263 0.8347 0.3487
vn 0.2436 0.8895 0.3865
vn 0.2443 0.8811 0.4050
vn 0.2444 0.8811 0.4050
vn 0.1268 0.9259 0.3558
vn 0.1067 0.9241 0.3669
vn 0.1412 0.8332 0.5347
vn 0.1753 0.8113 0.5577
vn 0.6403 -0.7681 0.0071
vn 0.4863 -0.8446 0.2239
vn 0.6222 -0.7785 0.0826
vn 0.4575 -0.8321 0.3136
vn 0.0266 -0.7759 0.6303
vn 0.6033 -0.7607 0.2397
vn 0.4156 -0.7845 0.4603
vn 0.4389 -0.8862 0.1482
vn -0.0180 -0.7013 0.7126
vn -0.5281 -0.2937 0.7968
vn 0.3658 -0.8493 0.3807
vn 0.2262 -0.9738 -0.0229
vn 0.2847 -0.9361 0.2064
vn 0.3658 -0.8493 0.3806
vn 0.3409 -0.7559 0.5589
vn 0.3409 -0.7559 0.5590
vn 0.0703 -0.5156 0.8540
vn -0.0375 -0.5968 0.8015
vn 0.0703 -0.5156 0.8539
vn -0.5566 -0.2264 0.7993
vn -0.8084 0.2774 0.5192
vn -0.8179 0.3032 0.4889
vn -0.7918 0.6078 0.0601
vn -0.5899 -0.1225 0.7982
vn -0.8740 0.2664 0.4064
vn -0.5899 -0.1225 0.7981
vn -0.7641 0.6439 0.0386
vn -0.5327 0.7420 -0.4071
vn -0.4911 0.7625 -0.4212
vn -0.0042 -0.5776 0.8163
vn 0.3409 -0.7558 0.5590
vn 0.0666 -0.8803 0.4697
vn -0.0042 -0.5777 0.8162
vn -0.5007 -0.3328 0.7991
vn -0.3781 -0.6656 0.6434
vn 0.0666 -0.8803 0.4698
vn -0.5655 0.1217 0.8157
vn -0.7473 -0.0011 0.6645
vn -0.6713 -0.3490 0.6539
vn -0.3781 -0.6656 0.6435
vn -0.7942 0.6031 0.0738
vn -0.9752 -0.0548 0.2144
vn -0.9238 0.2990 0.2389
vn -1.0000 -0.0012 -0.0023
vn -0.9428 -0.2966 0.1520
vn -0.9212 0.3883 0.0250
vn -0.9960 -0.0787 0.0433
vn -0.8739 -0.0855 0.4785
vn -0.8700 0.2769 0.4079
vn -0.8034 -0.5918 -0.0656
vn -0.8086 0.0178 -0.5881
vn -0.7875 0.4429 -0.4285
vn -0.5611 0.5377 -0.6293
vn -0.7519 0.6590 0.0216
vn -0.6429 0.6612 -0.3866
vn -0.7362 0.5982 -0.3166
vn -0.5550 0.4797 -0.6796
vn -0.6827 0.4622 -0.5659
vn -0.8713 0.4842 -0.0801
vn -0.9421 0.0999 0.3202
vn -0.8883 0.4592 -0.0025
vn -0.8208 0.5608 -0.1089
vn -0.8499 0.5250 -0.0453
vn -0.6407 0.5950 -0.4853
vn -0.6074 0.6576 -0.4457
vn -0.5693 0.5165 -0.6396
vn -0.7396 0.6179 -0.2669
vn -0.7186 0.6267 -0.3015
vn -0.3914 0.2150 -0.8948
vn -0.7239 0.4717 -0.5035
vn -0.6470 0.5826 -0.4919
vn -0.8728 0.4850 -0.0544
vn -0.7688 0.5822 -0.2645
vn -0.6878 0.5409 -0.4842
vn -0.7670 0.5965 -0.2366
vn -0.5293 0.5612 -0.6363
vn -0.8888 0.4581 -0.0121
vn -0.9555 0.0835 0.2828
vn -0.9088 0.3252 0.2613
vn -0.9645 0.2588 0.0529
vn -0.9793 -0.0724 0.1893
vn -0.8605 0.4960 0.1165
vn -0.8739 0.4767 -0.0954
vn -0.8492 0.4687 -0.2434
vn -0.7975 0.4995 -0.3383
vn -0.8125 0.4806 -0.3301
vn -0.8611 0.4480 -0.2403
vn -0.5263 0.4551 -0.7182
vn -0.8662 0.4995 0.0166
vn -0.8521 0.4209 0.3111
vn -0.8725 0.4499 0.1907
vn -0.8675 0.4778 0.1383
vn -0.8416 0.5131 -0.1687
vn -0.8551 0.5182 -0.0190
vn -0.7783 0.0173 0.6276
vn -0.7258 0.5153 0.4557
vn -0.6480 0.5270 0.5499
vn -0.7568 0.2848 0.5883
vn -0.7724 0.5754 0.2688
vn -0.8460 0.3999 0.3527
vn -0.7309 0.6815 -0.0362
vn -0.5898 -0.1225 0.7982
vn -0.7703 0.6358 -0.0490
vn -0.4704 0.7461 -0.4712
vn -0.7810 0.6206 -0.0695
vn -0.5346 0.7880 -0.3053
vn -0.5839 0.3510 -0.7320
vn -0.8900 0.3688 -0.2681
vn -0.6996 0.4690 -0.5391
vn -0.4873 0.5812 -0.6517
vn -0.4072 0.2001 -0.8912
vn -0.7038 0.6429 -0.3022
vn -0.6237 0.2905 -0.7257
vn -0.7029 0.4506 -0.5504
vn -0.2655 0.1989 -0.9434
vn -0.1173 0.6307 -0.7671
vn 0.3656 0.0045 -0.9308
vn 0.0300 0.2477 -0.9684
vn -0.3489 0.8133 -0.4656
vn 0.3698 0.3657 -0.8541
vn 0.1356 0.6856 -0.7152
vn 0.5647 -0.5168 -0.6435
vn 0.7246 -0.0401 -0.6880
vn 0.0594 0.6114 -0.7891
vn 0.0594 0.6113 -0.7891
vn 0.7033 0.0934 -0.7048
vn 0.6778 -0.6284 -0.3817
vn 0.4199 -0.7471 -0.5153
vn 0.3716 -0.8106 -0.4526
vn 0.5794 -0.7578 -0.3002
vn 0.7745 -0.6237 -0.1058
vn 0.8232 -0.4850 -0.2950
vn 0.7593 -0.5900 -0.2745
vn 0.7669 -0.3754 -0.5205
vn 0.7594 -0.5899 -0.2745
vn 0.7613 -0.5222 -0.3844
vn 0.7243 -0.3063 -0.6177
vn 0.5219 0.1391 -0.8416
vn 0.4529 0.1272 -0.8824
vn -0.0601 0.5647 -0.8231
vn -0.0049 0.5958 -0.8031
vn 0.0594 0.6113 -0.7892
usemtl Tex_0256_0_dds
s 1
f 1/1/1 2/2/2 3/3/3
f 3/3/3 2/2/2 4/4/4
f 4/4/4 5/5/5 3/3/3
f 6/6/6 5/5/5 4/4/4
f 6/6/6 7/7/7 5/5/5
f 5/5/5 7/7/8 8/8/9
f 9/9/10 8/8/9 7/7/8
f 10/10/11 8/8/9 9/9/12
f 9/9/10 11/11/13 10/10/11
f 12/12/14 11/11/13 9/9/10
f 12/12/14 13/13/15 11/11/13
f 14/14/16 13/13/15 12/12/14
f 14/14/16 15/15/17 13/13/15
f 16/16/18 15/15/19 14/14/16
f 16/16/18 17/17/20 15/15/17
f 18/18/21 17/17/20 16/16/18
f 18/18/22 19/19/23 17/17/20
f 17/17/20 19/19/23 20/20/24
f 2/21/25 20/20/24 19/19/23
f 1/22/26 20/20/24 2/21/25
f 2/23/27 19/24/28 21/25/29
f 21/25/29 19/24/28 22/26/30
f 19/24/28 18/27/31 22/26/30
f 21/25/29 22/26/30 23/28/32
f 23/28/32 22/26/30 24/29/33
f 24/29/33 25/30/34 23/28/32
f 22/26/30 26/31/35 24/29/33
f 22/26/30 18/27/31 26/31/35
f 16/32/36 26/31/35 18/27/31
f 27/33/37 25/30/34 24/29/33
f 27/33/37 28/34/38 25/30/34
f 29/35/39 28/34/38 27/33/40
f 29/35/39 27/33/37 30/36/41
f 30/36/42 27/33/37 31/37/43
f 32/38/44 27/33/37 24/29/33
f 31/37/45 27/33/37 32/38/44
f 24/29/33 26/31/35 32/38/44
f 26/31/35 33/39/46 32/38/44
f 33/39/46 26/31/35 16/32/36
f 16/32/36 14/40/47 33/39/46
f 33/39/46 14/40/47 34/41/48
f 14/40/47 35/42/49 34/41/48
f 34/41/48 36/43/50 33/39/46
f 32/38/44 33/39/46 36/43/50
f 36/43/50 31/37/45 32/38/44
f 37/44/51 36/43/52 34/41/48
f 34/41/48 35/42/49 37/44/51
f 12/45/53 35/42/49 14/40/47
f 12/45/53 38/46/54 35/42/49
f 9/47/55 38/46/54 12/45/53
f 39/48/56 30/36/57 31/37/43
f 40/49/58 30/36/41 39/48/59
f 41/50/60 40/49/58 39/48/56
f 42/51/61 40/49/62 41/50/60
f 41/50/60 39/48/56 43/52/63
f 43/52/63 39/48/56 31/37/45
f 43/52/63 31/37/45 36/43/50
f 44/53/64 42/51/61 41/50/60
f 45/54/65 42/51/66 44/53/64
f 46/55/67 45/54/68 44/53/69
f 47/56/70 45/54/71 46/55/72
f 48/57/73 47/56/74 46/55/75
f 49/58/76 47/56/74 48/57/73
f 49/58/76 48/57/73 50/59/77
f 50/59/77 48/57/73 51/60/78
f 51/60/78 52/61/79 50/59/77
f 51/60/78 48/57/73 53/62/80
f 53/62/80 48/57/73 46/55/75
f 54/63/81 52/61/79 51/60/78
f 54/63/81 51/60/78 53/62/80
f 54/63/82 55/64/83 52/61/84
f 53/62/85 46/55/86 56/65/87
f 53/62/88 56/65/89 54/63/90
f 57/66/91 55/64/92 54/63/93
f 57/66/94 58/67/95 55/64/96
f 54/63/97 56/65/98 59/68/99
f 54/63/100 59/68/101 57/66/102
f 56/65/103 46/55/104 60/69/105
f 46/55/106 44/53/107 60/69/108
f 56/65/109 61/70/110 59/68/111
f 59/68/112 61/70/113 57/66/114
f 56/65/115 60/69/116 62/71/117
f 62/71/118 61/70/119 56/65/120
f 44/53/121 62/71/122 60/69/123
f 63/72/124 62/71/125 44/53/64
f 44/53/64 41/50/60 63/72/124
f 43/52/63 63/72/124 41/50/60
f 62/71/125 63/72/124 64/73/126
f 64/73/126 63/72/124 43/52/63
f 62/71/125 64/73/126 61/70/127
f 43/52/63 36/43/50 64/73/126
f 64/73/126 36/43/128 37/44/51
f 37/44/51 65/74/129 64/73/126
f 37/44/51 35/42/49 65/74/129
f 65/74/129 35/42/49 66/75/130
f 66/75/130 35/42/49 38/46/54
f 64/73/126 65/74/129 67/76/131
f 61/70/127 64/73/126 67/76/131
f 65/74/129 66/75/130 67/76/131
f 61/70/127 67/76/131 68/77/132
f 57/66/133 61/70/134 68/77/135
f 69/78/136 58/67/137 57/66/138
f 57/66/139 68/77/140 69/78/141
f 69/78/142 70/79/143 58/67/144
f 68/77/132 67/76/131 71/80/145
f 69/78/142 68/77/132 71/80/145
f 67/76/131 66/75/130 71/80/145
f 71/80/145 72/81/146 69/78/142
f 72/81/146 70/79/143 69/78/142
f 71/80/145 66/75/130 73/82/147
f 73/82/147 72/81/146 71/80/145
f 72/81/146 74/83/148 70/79/143
f 75/84/149 72/81/146 73/82/147
f 75/84/149 74/83/148 72/81/146
f 73/82/147 66/75/130 76/85/150
f 38/46/54 76/85/151 66/75/130
f 75/84/149 73/82/147 77/86/152
f 77/86/152 73/82/147 76/85/151
f 78/87/153 74/83/148 75/84/149
f 79/88/154 74/83/148 78/87/153
f 28/89/155 79/88/154 25/90/156
f 25/90/156 79/88/154 78/87/153
f 25/90/156 78/87/153 23/91/157
f 78/87/153 75/84/149 80/92/158
f 23/91/157 78/87/153 80/92/158
f 80/92/158 75/84/149 77/86/152
f 80/92/158 21/93/159 23/91/157
f 81/94/160 21/93/161 80/92/158
f 77/86/152 81/94/160 80/92/158
f 21/93/161 81/94/160 2/95/162
f 2/95/162 81/94/160 4/96/163
f 82/97/164 81/94/160 77/86/152
f 81/94/160 82/97/164 4/96/163
f 76/85/151 82/97/164 77/86/152
f 4/96/163 82/97/164 6/98/165
f 6/98/165 82/97/164 7/99/166
f 83/100/167 82/97/164 76/85/151
f 7/99/166 82/97/164 83/100/167
f 7/99/166 83/100/167 9/47/55
f 9/47/55 83/100/167 38/46/54
f 83/100/167 76/85/168 38/46/54
