# Blender v3.0.1 OBJ File: ''
# www.blender.org
mtllib scrotumrightkneet.mtl
o Scrotus_With_Blade.010_Scrotus_With_Blade.012
v -2.399240 0.975456 -3.521796
v -2.960840 2.742456 -3.225796
v -0.800140 0.212456 -3.970496
v -2.838740 0.972357 -4.708996
v -3.736040 2.672256 -4.327496
v -2.927240 4.921457 -3.552396
v -3.543740 4.857357 -4.782195
v -1.401340 1.884857 -5.575696
v -2.115440 3.426056 -5.523796
v -0.766541 3.062859 -6.604196
v -2.045240 4.085258 -6.048796
v -0.690240 3.606159 -6.552296
v -1.727840 4.774958 -6.106795
v -2.490840 6.398556 -5.557395
v -1.492841 5.666159 -6.262395
v -0.543740 4.628458 -6.680495
v -0.397241 5.858358 -6.540095
v 0.759360 4.457558 -6.469896
v 0.573260 5.473858 -6.634695
v 0.820460 3.773958 -6.567595
v 2.910960 4.228657 -5.792396
v 0.905859 3.050659 -6.045696
v 2.691160 2.071056 -5.423096
v -0.134840 1.738356 -5.828996
v -0.855041 0.053757 -5.261396
v 1.214060 0.465757 -5.346796
v -0.711640 1.771959 -5.948096
v 2.404360 2.141256 -4.400796
v 1.034060 0.499357 -4.135296
v 2.669859 4.320257 -4.693696
v 1.784760 6.151356 -5.432295
v -0.180540 6.831959 -6.402795
v 1.793960 6.001858 -6.314295
v -0.067640 7.051657 -5.410895
v -1.968941 6.621357 -4.403795
vt 0.411900 0.784900
vt 0.409000 0.766700
vt 0.421700 0.780100
vt 0.403800 0.775600
vt 0.391500 0.761700
vt 0.423400 0.801500
vt 0.412200 0.799200
vt 0.394400 0.783200
vt 0.400400 0.791900
vt 0.389800 0.792200
vt 0.398900 0.796800
vt 0.389800 0.795300
vt 0.397800 0.801300
vt 0.389500 0.801600
vt 0.405300 0.810300
vt 0.396900 0.807000
vt 0.383200 0.807700
vt 0.389900 0.809300
vt 0.380600 0.797100
vt 0.381100 0.801400
vt 0.379000 0.791700
vt 0.365800 0.800300
vt 0.366300 0.785200
vt 0.385500 0.783100
vt 0.390000 0.771900
vt 0.389300 0.783500
vt 0.376500 0.774500
vt 0.373100 0.765000
vt 0.358600 0.780700
vt 0.356400 0.802300
vt 0.370500 0.818500
vt 0.389700 0.815900
vt 0.374900 0.812400
vt 0.390300 0.824300
vt 0.411500 0.818700
vn -0.9752 -0.1818 -0.1262
vn -0.6325 -0.7175 0.2917
vn -0.8076 -0.1254 0.5762
vn -0.7118 -0.5946 -0.3739
vn -0.1416 -0.9813 0.1301
vn -0.8288 0.3612 0.4274
vn -0.9469 0.2343 -0.2201
vn -0.5005 -0.2646 -0.8243
vn -0.6140 -0.2958 -0.7318
vn -0.1981 -0.2432 -0.9495
vn -0.5789 -0.1235 -0.8060
vn -0.9469 0.2343 -0.2202
vn -0.1850 0.0383 -0.9820
vn -0.4900 0.0376 -0.8709
vn -0.1726 -0.0109 -0.9849
vn -0.6616 0.6114 -0.4341
vn -0.4261 0.1296 -0.8954
vn 0.1366 0.0490 -0.9894
vn -0.1610 0.1554 -0.9746
vn -0.4261 0.1296 -0.8953
vn 0.2666 -0.1996 -0.9429
vn 0.2374 0.0242 -0.9711
vn 0.2680 -0.3892 -0.8813
vn 0.8833 0.0726 -0.4632
vn 0.8833 0.0727 -0.4631
vn 0.8833 0.0727 -0.4632
vn 0.8125 -0.4089 -0.4154
vn 0.1616 -0.3448 -0.9247
vn -0.1707 -0.8484 -0.5011
vn -0.1631 -0.4071 -0.8987
vn 0.4439 -0.7411 -0.5038
vn -0.1708 -0.8484 -0.5011
vn 0.4438 -0.7411 -0.5038
vn 0.4673 -0.8776 0.1066
vn 0.8771 -0.4093 0.2515
vn 0.9602 0.1909 0.2039
vn 0.6711 0.7351 -0.0964
vn -0.0096 0.7242 -0.6895
vn 0.5728 0.5016 -0.6483
vn 0.0592 0.9771 -0.2044
vn -0.5396 0.8350 0.1072
vn -0.5397 0.8350 0.1072
usemtl Tex_0042_0_dds.001
s 1
f 5/1/1 1/2/2 2/3/3
f 4/4/4 3/5/5 1/2/2
f 4/4/4 1/2/2 5/1/1
f 5/1/1 6/6/6 7/7/7
f 2/3/3 6/6/6 5/1/1
f 4/4/4 5/1/1 8/8/8
f 5/1/1 7/7/7 9/9/9
f 5/1/1 9/9/9 8/8/8
f 9/9/9 10/10/10 8/8/8
f 9/9/9 11/11/11 10/10/10
f 9/9/9 7/7/12 11/11/11
f 10/10/10 11/11/11 12/12/13
f 13/13/14 12/12/13 11/11/11
f 7/7/7 13/13/14 11/11/11
f 16/14/15 12/12/13 13/13/14
f 13/13/14 14/15/16 15/16/17
f 7/7/7 14/15/16 13/13/14
f 15/16/17 16/14/15 13/13/14
f 19/17/18 16/14/15 17/18/19
f 17/18/19 16/14/15 15/16/20
f 20/19/21 16/14/15 18/20/22
f 18/20/22 16/14/15 19/17/18
f 12/12/13 16/14/15 20/19/21
f 20/19/21 10/10/10 12/12/13
f 22/21/23 10/10/10 20/19/21
f 20/19/21 18/20/22 21/22/24
f 20/19/21 21/22/25 22/21/23
f 22/21/23 21/22/26 23/23/27
f 24/24/28 22/21/23 23/23/27
f 24/24/28 10/10/10 22/21/23
f 24/24/28 25/25/29 27/26/30
f 26/27/31 25/25/32 24/24/28
f 24/24/28 23/23/27 26/27/33
f 27/26/30 10/10/10 24/24/28
f 27/26/30 25/25/32 8/8/8
f 8/8/8 10/10/10 27/26/30
f 29/28/34 25/25/32 26/27/33
f 23/23/27 28/29/35 26/27/31
f 26/27/31 28/29/35 29/28/34
f 3/5/5 25/25/32 29/28/34
f 23/23/27 30/30/36 28/29/35
f 21/22/26 31/31/37 30/30/36
f 21/22/26 30/30/36 23/23/27
f 32/32/38 31/31/37 33/33/39
f 34/34/40 31/31/37 32/32/38
f 33/33/39 31/31/37 21/22/26
f 35/35/41 34/34/40 14/15/16
f 14/15/16 34/34/40 32/32/38
f 6/6/6 35/35/42 7/7/7
f 7/7/7 35/35/41 14/15/16
f 19/17/18 33/33/39 18/20/22
f 19/17/18 32/32/38 33/33/39
f 18/20/22 33/33/39 21/22/26
f 14/15/16 32/32/38 15/16/17
f 15/16/17 32/32/38 17/18/19
f 17/18/19 32/32/38 19/17/18
f 8/8/8 25/25/32 4/4/4
f 25/25/32 3/5/5 4/4/4
