# Blender v3.0.1 OBJ File: ''
# www.blender.org
mtllib scrotumarmleft.mtl
o Scrotus_With_Blade.005_Scrotus_With_Blade.013
v -12.588900 12.653069 -9.305563
v -13.370200 10.254265 -9.903664
v -11.890000 10.986771 -10.303464
v -14.258200 12.149467 -8.383863
v -13.101600 12.851364 -8.930163
v -13.025300 13.336670 -8.576163
v -13.510500 13.849365 -7.272964
v -14.981500 9.872765 -9.073564
v -13.827900 14.200371 -6.397063
v -16.299900 10.849365 -7.746064
v -16.544100 9.677467 -8.084764
v -15.781100 11.761864 -7.025764
v -15.097500 12.982666 -4.993263
v -13.956100 14.212570 -5.338163
v -13.971400 14.188164 -3.839663
v -13.589900 13.556366 -2.054364
v -16.815701 11.304169 -4.929164
v -16.309099 10.974564 -7.034964
v -17.029301 9.643967 -7.254664
v -17.859400 9.750771 -5.777564
v -17.963200 9.836166 -4.495764
v -17.786200 9.796471 -3.754164
v -16.559299 11.294968 -3.384964
v -17.456600 9.927765 -2.914964
v -16.376200 10.474068 -1.916964
v -16.544100 9.677467 -1.813264
v -15.930700 11.197266 -2.106164
v -14.597000 11.612366 -1.205964
v -12.976500 12.555367 -0.757264
v -12.372200 10.760864 0.149136
v -14.209400 10.019264 -0.250664
v -15.842200 10.290871 -1.718664
v -15.845200 9.686668 -1.340164
v -14.130100 13.803566 -7.340163
v -13.870700 13.470970 -7.334064
v -14.093400 13.388565 -7.169263
v -13.892000 13.577766 -7.077663
v -13.889000 13.693764 -7.428663
v -13.910300 13.800568 -7.166163
v -13.898100 14.032471 -7.413363
v -13.788300 13.922569 -7.205863
v -13.766900 13.815765 -7.465263
v -13.611300 13.968369 -7.208863
v -13.589900 13.861565 -7.471364
v -13.562400 14.124069 -7.422563
v -13.373200 13.797470 -7.123463
v -13.351800 13.693764 -7.379764
v -13.119900 13.806664 -7.254663
v -13.730300 14.133163 -5.191663
v -13.666200 14.474968 -5.008563
v -13.483100 14.185066 -5.014663
v -13.727200 14.127068 -4.834563
v -13.831000 14.291870 -5.188563
v -13.977500 14.560471 -5.005464
v -13.998800 14.340767 -5.185563
v -13.827900 14.285767 -4.831463
v -13.995800 14.334663 -4.831463
v -14.301000 14.459770 -5.005464
v -14.172800 14.285767 -5.185563
v -14.172800 14.279671 -4.831463
v -14.291800 14.145370 -5.188563
v -14.291800 14.139267 -4.834563
v -14.520700 14.203369 -5.008563
v -14.258200 13.892067 -5.191663
v -14.258200 13.885963 -4.840663
v -14.456600 13.739464 -5.017663
v -13.672300 13.788368 -2.914964
v -13.574600 14.066071 -2.664663
v -13.406800 13.782265 -2.783763
v -13.654000 13.687668 -2.649464
v -13.763800 13.937866 -2.850863
v -13.879800 14.160667 -2.603663
v -13.922500 13.989769 -2.817264
v -13.742500 13.840164 -2.582263
v -13.904200 13.889069 -2.554863
v -14.209400 14.075165 -2.612864
v -14.096500 13.943970 -2.823363
v -14.078200 13.846268 -2.557864
v -14.218600 13.821869 -2.860064
v -14.200300 13.721169 -2.594463
v -14.444400 13.840164 -2.682963
v -14.197200 13.580765 -2.951563
v -14.178900 13.483170 -2.686063
v -14.401700 13.394669 -2.853864
v -16.586800 9.686668 -8.185464
v -16.348801 10.943970 -7.831464
v -15.073100 9.897270 -9.220064
v -15.814700 12.015167 -6.976964
v -13.425100 10.296967 -10.025764
v -15.240900 11.395668 -8.450964
v -11.905300 11.011169 -10.379764
v -12.659100 12.714066 -9.467263
v -13.992700 11.987770 -9.113264
v -13.245000 12.881966 -9.036963
v -14.346800 12.680466 -8.298464
v -13.113800 13.415970 -8.631063
v -13.614300 13.956169 -7.303463
v -13.959200 14.267464 -6.421563
v -14.886900 12.991768 -7.163164
v -15.271500 13.251167 -5.518164
v -14.072100 14.285767 -5.356463
v -14.102600 14.276665 -3.848863
v -15.338600 13.165764 -3.836564
v -13.730300 13.629669 -1.968863
v -13.037500 12.613365 -0.656563
v -12.369200 10.776169 0.231536
v -14.441400 11.905365 -0.949564
v -14.294900 10.077271 -0.171364
v -15.927600 9.762970 -1.245564
v -15.991700 10.345871 -1.596564
v -16.010000 11.264465 -2.054364
v -16.461700 10.550270 -1.816264
v -16.632601 9.701866 -1.746064
v -17.545099 9.958267 -2.844764
v -17.874701 9.845367 -3.732864
v -18.030300 9.891167 -4.492764
v -16.608200 11.795464 -3.891564
v -15.027300 12.649963 -2.063464
v -16.623400 11.755768 -5.652464
v -17.935699 9.827065 -5.811164
v -17.096500 9.689667 -7.312664
v -16.431200 11.020264 -7.184464
vt 0.417800 0.547900
vt 0.425800 0.535300
vt 0.429400 0.544400
vt 0.410900 0.538700
vt 0.414200 0.546600
vt 0.411300 0.548700
vt 0.402700 0.548300
vt 0.419300 0.526800
vt 0.396800 0.548200
vt 0.407000 0.524700
vt 0.411600 0.519100
vt 0.402100 0.530200
vt 0.389300 0.537300
vt 0.390600 0.547200
vt 0.381800 0.546500
vt 0.370600 0.544300
vt 0.390100 0.523400
vt 0.402800 0.524800
vt 0.405400 0.516400
vt 0.395900 0.513100
vt 0.388400 0.512500
vt 0.383900 0.512700
vt 0.381000 0.523600
vt 0.378700 0.514100
vt 0.371800 0.520000
vt 0.370300 0.515500
vt 0.372700 0.524900
vt 0.365700 0.531700
vt 0.360700 0.541700
vt 0.350100 0.535600
vt 0.356300 0.525700
vt 0.368400 0.521100
vt 0.365300 0.518300
vt 0.022100 0.251100
vt 0.018300 0.246400
vt 0.022100 0.246400
vt 0.025900 0.246400
vt 0.018300 0.251100
vt 0.025900 0.251100
vt 0.022100 0.254600
vt 0.025900 0.254600
vt 0.018300 0.254600
vt 0.025900 0.258300
vt 0.018300 0.258300
vt 0.022100 0.258300
vt 0.025900 0.264200
vt 0.018300 0.264200
vt 0.022100 0.264200
vt 0.018100 0.291500
vt 0.022300 0.287800
vt 0.022300 0.291500
vt 0.026500 0.291500
vt 0.018100 0.287800
vt 0.022300 0.284400
vt 0.018100 0.284400
vt 0.026500 0.287800
vt 0.026500 0.284400
vt 0.022300 0.280800
vt 0.018100 0.280800
vt 0.026500 0.280800
vt 0.018100 0.277100
vt 0.026500 0.277100
vt 0.022300 0.277100
vt 0.018100 0.272100
vt 0.026500 0.272100
vt 0.022300 0.272100
vt 0.018900 0.320600
vt 0.023000 0.316800
vt 0.023000 0.320600
vt 0.027000 0.320600
vt 0.018900 0.316800
vt 0.023000 0.313400
vt 0.018900 0.313400
vt 0.027000 0.316800
vt 0.027000 0.313400
vt 0.023000 0.309800
vt 0.018900 0.309800
vt 0.027000 0.309800
vt 0.018900 0.306200
vt 0.027000 0.306200
vt 0.023000 0.306200
vt 0.018900 0.301100
vt 0.027000 0.301100
vt 0.023000 0.301100
vt 0.537600 0.195100
vt 0.544600 0.187500
vt 0.546000 0.187500
vt 0.535200 0.176600
vt 0.536600 0.194400
vt 0.530800 0.202200
vt 0.534300 0.177600
vt 0.523200 0.167700
vt 0.528200 0.203200
vt 0.522600 0.168600
vt 0.506300 0.164000
vt 0.527100 0.188900
vt 0.507300 0.165400
vt 0.505300 0.178300
vt 0.503900 0.178600
vt 0.505300 0.183700
vt 0.516400 0.182900
vt 0.506800 0.183900
vt 0.514700 0.191600
vt 0.503600 0.188400
vt 0.502700 0.187900
vt 0.502100 0.199700
vt 0.503300 0.200000
vt 0.502500 0.207700
vt 0.503700 0.207800
vt 0.516300 0.201700
vt 0.516500 0.215500
vt 0.503700 0.216100
vt 0.502500 0.216200
vt 0.503500 0.227900
vt 0.502200 0.228200
vt 0.516700 0.228800
vt 0.503700 0.243400
vt 0.502400 0.243400
vt 0.503200 0.257400
vt 0.502100 0.257500
vt 0.505500 0.273400
vt 0.506600 0.271800
vt 0.521000 0.270800
vt 0.515600 0.255100
vt 0.520600 0.269600
vt 0.536000 0.262200
vt 0.534900 0.261400
vt 0.534700 0.255500
vt 0.533400 0.255900
vt 0.533600 0.248200
vt 0.532400 0.247200
vt 0.539500 0.248300
vt 0.539500 0.247100
vt 0.546200 0.248600
vt 0.546700 0.249500
vt 0.549300 0.238300
vt 0.548300 0.238200
vt 0.550700 0.231200
vt 0.551500 0.231400
vt 0.552000 0.225300
vt 0.551300 0.225200
vt 0.552600 0.215000
vt 0.531900 0.229400
vt 0.516700 0.243600
vt 0.533000 0.215300
vt 0.551700 0.215100
vt 0.550200 0.201000
vt 0.549400 0.202200
vt 0.538300 0.203000
vt 0.538300 0.201800
vn 0.4931 -0.3245 0.8072
vn 0.4745 -0.3690 0.7992
vn 0.3991 -0.3421 0.8507
vn 0.5958 -0.5201 0.6120
vn 0.5950 -0.5207 0.6122
vn 0.5686 -0.3620 0.7387
vn 0.6317 -0.5711 0.5242
vn 0.6487 -0.5952 0.4742
vn 0.5013 -0.3804 0.7772
vn 0.7716 -0.5633 0.2955
vn 0.5444 -0.4735 0.6924
vn 0.5333 -0.3356 0.7765
vn 0.6251 -0.7075 0.3297
vn 0.7331 -0.6801 0.0002
vn 0.7395 -0.6709 0.0549
vn 0.8117 -0.5358 -0.2324
vn 0.7254 -0.5390 -0.4281
vn 0.7484 -0.6613 0.0505
vn 0.7479 -0.6619 0.0501
vn 0.7682 -0.5541 0.3207
vn 0.7491 -0.4807 0.4558
vn 0.7682 -0.5875 0.2545
vn 0.7480 -0.6619 0.0501
vn 0.7754 -0.6274 -0.0721
vn 0.7665 -0.6129 -0.1918
vn 0.6748 -0.6857 -0.2727
vn 0.7568 -0.5429 -0.3641
vn 0.7269 -0.4642 -0.5061
vn 0.7211 -0.2368 -0.6511
vn 0.6044 -0.6413 -0.4727
vn 0.5729 -0.4854 -0.6605
vn 0.4627 -0.4251 -0.7779
vn 0.3822 -0.3574 -0.8522
vn 0.4675 -0.3825 -0.7970
vn 0.5892 -0.3373 -0.7342
vn 0.5577 -0.4426 -0.7022
vn -0.9423 0.2748 -0.1912
vn -0.4613 -0.3745 -0.8043
vn -0.9931 -0.1070 -0.0471
vn -0.5943 0.2587 0.7615
vn -0.4048 -0.1717 -0.8981
vn -0.5943 0.2586 0.7615
vn -0.5432 0.4732 0.6935
vn -0.5432 0.4732 0.6936
vn -0.5076 0.7816 -0.3625
vn -0.9423 0.2749 -0.1912
vn -0.4048 -0.1717 -0.8982
vn -0.5077 0.7816 -0.3625
vn -0.3331 0.7490 0.5728
vn -0.1985 0.1129 -0.9736
vn 0.0594 0.8012 0.5954
vn -0.5076 0.7816 -0.3626
vn 0.1860 0.1597 -0.9695
vn 0.2032 0.9123 -0.3555
vn -0.5076 0.7817 -0.3625
vn 0.2964 0.7328 0.6125
vn 0.2031 0.9123 -0.3555
vn 0.4268 0.1198 -0.8964
vn 0.2031 0.9124 -0.3554
vn 0.6247 0.7417 -0.2442
vn 0.6246 0.7417 -0.2443
vn 0.5015 0.3336 -0.7983
vn 0.6049 0.7963 0.0080
vn 0.8455 0.5339 0.0016
vn 0.6048 0.7963 0.0080
vn 0.5147 0.3095 0.7996
vn 0.8455 0.5340 0.0016
vn 0.3351 0.4908 -0.8042
vn 0.6049 0.7963 0.0081
vn 0.5013 0.3337 -0.7984
vn -0.0039 0.9999 0.0154
vn -0.0246 0.6345 -0.7725
vn 0.6048 0.7964 0.0080
vn 0.3456 0.4669 0.8140
vn 0.5145 0.3096 0.7997
vn -0.0040 0.9999 0.0154
vn -0.0158 0.6111 0.7914
vn -0.0039 0.9999 0.0153
vn -0.5548 0.8319 0.0157
vn -0.5548 0.8318 0.0158
vn -0.5549 0.8318 0.0158
vn -0.3457 0.5398 -0.7676
vn -0.3430 0.5148 0.7857
vn -0.5773 0.1865 -0.7949
vn -0.3457 0.5398 -0.7675
vn -0.5548 0.8318 0.0159
vn -0.5710 0.1584 0.8055
vn -0.3429 0.5149 0.7857
vn -0.9607 0.2775 0.0104
vn -0.6268 -0.0721 -0.7758
vn -0.9607 0.2776 0.0104
vn -0.6198 -0.1010 0.7782
vn -0.9906 -0.1368 -0.0011
vn -0.6198 -0.1009 0.7782
vn 0.3764 0.5436 -0.7502
vn 0.6564 0.7223 0.2179
vn 0.8755 0.4690 0.1163
vn 0.6563 0.7223 0.2179
vn 0.5061 -0.0715 0.8595
vn 0.2408 0.6690 -0.7032
vn 0.0581 0.9339 0.3528
vn -0.0418 0.7844 -0.6188
vn 0.3758 0.0484 0.9254
vn 0.0646 0.1743 0.9826
vn -0.0418 0.7845 -0.6188
vn -0.5024 0.7962 0.3371
vn -0.5025 0.7962 0.3371
vn -0.3171 0.7192 -0.6182
vn -0.1956 0.1214 0.9731
vn -0.5277 0.4504 -0.7202
vn -0.4049 -0.1601 0.9003
vn -0.9413 0.2859 0.1794
vn -0.9413 0.2858 0.1794
vn -0.5023 0.7962 0.3371
vn -0.5871 0.2407 -0.7729
vn -0.4676 -0.3546 0.8097
vn -0.9940 -0.1060 0.0280
vn -0.4678 -0.3549 0.8094
vn -0.9414 0.2858 0.1794
vn -0.5876 0.2401 -0.7727
vn -0.9940 -0.1061 0.0280
vn -0.8528 0.0350 0.5211
vn -0.8070 -0.4944 -0.3230
vn -0.7580 -0.5949 0.2675
vn 0.0651 -0.9772 -0.2020
vn -0.9241 0.3530 -0.1461
vn -0.9008 -0.0958 -0.4235
vn -0.3675 -0.5190 -0.7717
vn 0.0651 -0.9772 -0.2019
vn -0.3675 -0.5191 -0.7717
vn 0.1781 -0.9028 -0.3914
vn -0.7246 0.5662 -0.3929
vn -0.9008 -0.0957 -0.4235
vn 0.1781 -0.9028 -0.3915
vn -0.1611 -0.4399 -0.8835
vn -0.1610 -0.4399 -0.8835
vn 0.8932 -0.3377 -0.2968
vn -0.5984 0.4548 -0.6596
vn -0.3676 -0.5190 -0.7717
vn -0.9241 0.3531 -0.1461
vn 0.8933 -0.3377 -0.2968
vn -0.1610 -0.4400 -0.8835
vn 0.5594 -0.0643 -0.8264
vn 0.2568 0.7772 -0.5744
vn 0.5593 -0.0642 -0.8265
vn 0.5593 -0.0642 -0.8264
vn 0.6828 0.7303 -0.0207
vn 0.2568 0.7772 -0.5745
vn 0.5020 0.7647 -0.4040
vn -0.3675 -0.5190 -0.7718
vn -0.5038 0.4006 -0.7653
vn -0.1971 0.6897 -0.6968
vn 0.5020 0.7647 -0.4041
vn -0.1971 0.6896 -0.6968
vn -0.5960 0.5806 -0.5547
vn 0.2065 0.7989 -0.5649
vn 0.7369 0.5628 -0.3744
vn 0.7181 0.6958 -0.0147
vn 0.7181 0.6957 -0.0146
vn 0.2066 0.7989 -0.5649
vn 0.1035 0.9387 -0.3289
vn 0.7182 0.6957 -0.0147
vn 0.4772 0.8776 -0.0466
vn -0.1456 0.9681 -0.2041
vn -0.6660 0.6342 -0.3927
vn -0.7023 0.7018 -0.1195
vn -0.1456 0.9681 -0.2040
vn -0.0948 0.9955 -0.0031
vn 0.5307 0.8469 0.0342
vn -0.0985 0.9814 0.1649
vn 0.5505 0.8278 0.1082
vn -0.6862 0.7075 0.1693
vn -0.0250 0.8859 0.4632
vn 0.5625 0.7942 0.2300
vn 0.2833 0.6681 0.6880
vn 0.8258 0.5288 0.1961
vn 0.8258 0.5288 0.1960
vn 0.2832 0.6682 0.6880
vn 0.8977 -0.4370 0.0565
vn 0.8977 -0.4370 0.0564
vn 0.2833 0.6682 0.6879
vn 0.6270 -0.1587 0.7627
vn 0.6270 -0.1589 0.7626
vn 0.0124 -0.8060 0.5917
vn 0.2833 0.6682 0.6880
vn -0.4932 0.4230 0.7602
vn 0.6270 -0.1588 0.7627
vn 0.0124 -0.8060 0.5918
vn -0.3098 -0.3267 0.8929
vn -0.3098 -0.3268 0.8929
vn -0.6459 -0.7619 0.0492
vn -0.8435 -0.3666 0.3926
vn -0.6459 -0.7619 0.0493
vn -0.3098 -0.3266 0.8929
vn -0.6458 -0.7619 0.0492
vn -0.6765 -0.3846 -0.6280
vn -0.9967 -0.0566 0.0583
vn -0.9967 -0.0565 0.0583
vn -0.5921 -0.7984 0.1091
vn -0.5922 -0.7984 0.1091
vn -0.6918 0.3882 0.6089
vn -0.6918 0.3882 0.6088
vn -0.6918 0.3883 0.6088
vn 0.6922 -0.1286 0.7102
vn -0.0957 0.2811 0.9549
vn -0.2033 -0.5102 0.8357
vn 0.2769 -0.7264 0.6291
vn 0.2769 -0.7264 0.6290
vn -0.2033 -0.5103 0.8356
vn -0.2462 -0.9618 0.1195
vn -0.8669 -0.2788 0.4133
vn -0.2462 -0.9618 0.1197
vn -0.2033 -0.5101 0.8357
vn -0.9168 -0.2769 0.2879
vn -0.2462 -0.9618 0.1196
vn -0.9168 -0.2769 0.2878
vn -0.4404 -0.8788 0.1840
vn -0.4404 -0.8788 0.1839
vn -0.9168 -0.2769 0.2877
vn -0.6258 -0.7789 0.0412
vn -0.9922 -0.1090 0.0611
vn -0.6637 -0.7327 -0.1507
vn -0.7644 0.6191 0.1800
vn -0.6241 0.6087 0.4899
vn -0.7671 0.6160 -0.1791
vn -0.9922 -0.1090 0.0610
vn -0.9575 -0.1127 -0.2654
vn 0.0472 -0.7612 -0.6468
vn 0.0473 -0.7612 -0.6468
vn -0.3724 -0.3259 -0.8690
vn -0.3725 -0.3260 -0.8689
vn -0.1172 0.1956 -0.9737
vn 0.6679 -0.3552 -0.6540
vn -0.1171 0.1956 -0.9737
vn -0.9008 -0.0958 -0.4236
usemtl Tex_0042_0_dds.001
s 1
f 1/1/1 2/2/2 3/3/3
f 4/4/4 2/2/2 1/1/1
f 4/4/5 1/1/1 5/5/6
f 4/4/5 5/5/6 6/6/7
f 4/4/5 6/6/7 7/7/8
f 4/4/5 8/8/9 2/2/2
f 7/7/8 9/9/10 4/4/5
f 8/8/9 10/10/11 11/11/12
f 4/4/5 10/10/11 8/8/9
f 12/12/13 10/10/11 4/4/5
f 4/4/5 9/9/10 13/13/14
f 12/12/13 4/4/5 13/13/14
f 13/13/14 9/9/10 14/14/15
f 13/13/14 14/14/15 15/15/16
f 15/15/16 16/16/17 13/13/14
f 12/12/13 13/13/14 17/17/18
f 17/17/19 18/18/20 12/12/13
f 19/19/21 18/18/20 20/20/22
f 20/20/22 18/18/20 17/17/23
f 17/17/23 21/21/24 20/20/22
f 17/17/19 22/22/25 21/21/24
f 17/17/23 23/23/26 22/22/25
f 22/22/25 23/23/26 24/24/27
f 24/24/27 25/25/28 26/26/29
f 23/23/26 25/25/28 24/24/27
f 23/23/26 27/27/30 25/25/28
f 13/13/14 23/23/26 17/17/19
f 23/23/26 28/28/31 27/27/30
f 13/13/14 28/28/31 23/23/26
f 13/13/14 16/16/17 28/28/31
f 16/16/17 29/29/32 28/28/31
f 29/29/32 30/30/33 28/28/31
f 28/28/31 30/30/33 31/31/34
f 28/28/31 32/32/35 27/27/30
f 28/28/31 31/31/34 32/32/35
f 32/32/35 31/31/34 33/33/36
f 34/34/37 35/35/38 36/36/39
f 36/36/39 37/37/40 34/34/37
f 38/38/41 35/35/38 34/34/37
f 34/34/37 37/37/42 39/39/43
f 34/34/37 39/39/44 40/40/45
f 34/34/46 40/40/45 38/38/47
f 40/40/48 39/39/43 41/41/49
f 38/38/47 40/40/48 42/42/50
f 43/43/51 40/40/52 41/41/49
f 40/40/45 44/44/53 42/42/50
f 45/45/54 40/40/45 43/43/51
f 45/45/54 44/44/53 40/40/55
f 43/43/51 46/46/56 45/45/57
f 44/44/53 45/45/54 47/47/58
f 45/45/59 46/46/56 48/48/60
f 47/47/58 45/45/54 48/48/61
f 49/49/62 50/50/63 51/51/64
f 50/50/65 52/52/66 51/51/67
f 53/53/68 50/50/69 49/49/70
f 50/50/65 53/53/68 54/54/71
f 54/54/71 53/53/68 55/55/72
f 50/50/73 54/54/71 56/56/74
f 56/56/74 52/52/75 50/50/63
f 56/56/74 54/54/76 57/57/77
f 54/54/78 55/55/72 58/58/79
f 54/54/71 58/58/80 57/57/77
f 58/58/81 55/55/72 59/59/82
f 57/57/77 58/58/80 60/60/83
f 61/61/84 58/58/80 59/59/85
f 58/58/86 62/62/87 60/60/88
f 63/63/89 58/58/81 61/61/84
f 63/63/89 62/62/87 58/58/80
f 61/61/84 64/64/90 63/63/91
f 63/63/89 65/65/92 62/62/87
f 66/66/93 65/65/94 63/63/89
f 63/63/89 64/64/90 66/66/93
f 67/67/95 68/68/96 69/69/97
f 68/68/98 70/70/99 69/69/97
f 71/71/100 68/68/98 67/67/95
f 68/68/96 71/71/100 72/72/101
f 72/72/101 71/71/100 73/73/102
f 68/68/98 72/72/101 74/74/103
f 74/74/103 70/70/99 68/68/98
f 74/74/103 72/72/101 75/75/104
f 72/72/101 73/73/105 76/76/106
f 72/72/101 76/76/107 75/75/104
f 76/76/106 73/73/105 77/77/108
f 75/75/104 76/76/106 78/78/109
f 79/79/110 76/76/106 77/77/108
f 76/76/106 80/80/111 78/78/109
f 81/81/112 76/76/106 79/79/110
f 81/81/113 80/80/111 76/76/114
f 79/79/110 82/82/115 81/81/113
f 81/81/113 83/83/116 80/80/111
f 84/84/117 83/83/118 81/81/112
f 81/81/119 82/82/120 84/84/121
f 10/85/122 85/86/123 11/87/124
f 11/87/124 85/86/123 8/88/125
f 86/89/126 85/86/123 10/85/122
f 12/90/127 86/89/126 10/85/122
f 86/89/126 87/91/128 85/86/123
f 8/88/125 85/86/123 87/91/128
f 8/88/129 87/91/130 2/92/131
f 88/93/132 86/89/126 12/90/133
f 2/92/134 87/91/128 89/94/135
f 2/92/134 89/94/136 3/95/137
f 90/96/138 87/91/139 86/89/140
f 90/96/138 86/89/126 88/93/132
f 3/95/141 89/94/142 91/97/143
f 92/98/144 3/95/137 91/97/145
f 91/97/146 89/94/135 92/98/144
f 1/99/147 3/95/137 92/98/144
f 1/99/147 92/98/148 5/100/149
f 87/91/150 93/101/151 89/94/135
f 92/98/144 89/94/135 93/101/151
f 90/96/138 93/101/151 87/91/128
f 92/98/144 93/101/151 94/102/152
f 5/100/153 92/98/148 94/102/154
f 94/102/152 93/101/151 95/103/155
f 95/103/155 93/101/151 90/96/138
f 94/102/152 96/104/156 5/100/149
f 94/102/152 95/103/155 96/104/156
f 5/100/149 96/104/156 6/105/157
f 6/105/157 96/104/156 7/106/158
f 7/106/159 96/104/160 97/107/161
f 96/104/156 95/103/155 97/107/161
f 7/106/162 97/107/161 9/108/163
f 9/108/163 97/107/161 98/109/164
f 97/107/161 95/103/155 99/110/165
f 98/109/164 97/107/161 99/110/165
f 99/110/165 95/103/155 90/96/138
f 88/93/132 99/110/165 90/96/138
f 99/110/165 100/111/166 98/109/164
f 100/111/166 99/110/165 88/93/132
f 98/109/167 101/112/168 9/108/163
f 98/109/164 100/111/166 101/112/168
f 9/108/163 101/112/168 14/113/169
f 101/112/168 102/114/170 14/113/169
f 14/113/169 102/114/170 15/115/171
f 102/114/170 101/112/168 103/116/172
f 103/116/172 101/112/168 100/111/166
f 102/114/170 104/117/173 15/115/171
f 102/114/170 103/116/172 104/117/173
f 15/115/171 104/117/173 16/118/174
f 104/117/173 105/119/175 16/118/174
f 16/118/174 105/119/175 29/120/176
f 29/120/177 105/119/178 30/121/179
f 30/121/180 105/119/181 106/122/182
f 30/121/180 106/122/183 31/123/184
f 105/119/185 107/124/186 106/122/187
f 105/119/185 104/117/173 107/124/186
f 31/123/188 106/122/187 108/125/189
f 106/122/187 107/124/186 108/125/189
f 108/125/190 33/126/191 31/123/188
f 109/127/192 33/126/193 108/125/194
f 33/126/195 109/127/192 32/128/196
f 110/129/197 109/127/192 108/125/189
f 32/128/196 109/127/192 110/129/197
f 108/125/189 107/124/186 110/129/198
f 32/128/196 110/129/197 27/130/199
f 27/130/200 110/129/197 111/131/201
f 107/124/186 111/131/202 110/129/198
f 27/130/200 111/131/203 25/132/204
f 25/132/204 111/131/203 112/133/205
f 112/133/205 113/134/206 25/132/204
f 25/132/204 113/134/206 26/135/207
f 26/135/208 113/134/209 24/136/210
f 114/137/211 113/134/206 112/133/205
f 24/136/212 113/134/213 114/137/211
f 111/131/202 114/137/211 112/133/205
f 114/137/211 115/138/214 24/136/215
f 24/136/212 115/138/216 22/139/217
f 22/139/218 115/138/219 21/140/220
f 21/140/220 115/138/216 116/141/221
f 21/140/220 116/141/221 20/142/222
f 114/137/211 117/143/223 115/138/216
f 116/141/221 115/138/216 117/143/223
f 117/143/223 114/137/211 111/131/202
f 107/124/186 118/144/224 111/131/202
f 118/144/224 117/143/223 111/131/202
f 107/124/186 104/117/173 118/144/224
f 104/117/173 103/116/172 118/144/224
f 103/116/172 117/143/223 118/144/224
f 103/116/172 100/111/166 117/143/223
f 117/143/223 100/111/166 119/145/225
f 119/145/225 116/141/226 117/143/223
f 88/93/132 119/145/225 100/111/166
f 120/146/227 116/141/221 119/145/225
f 20/142/222 116/141/221 120/146/227
f 20/142/222 120/146/227 19/147/228
f 19/147/229 120/146/227 121/148/230
f 121/148/231 120/146/227 122/149/232
f 121/148/231 122/149/232 19/147/228
f 122/149/232 120/146/227 119/145/225
f 122/149/232 119/145/225 88/93/132
f 19/147/228 122/149/232 18/150/233
f 12/90/133 122/149/232 88/93/132
f 18/150/233 122/149/234 12/90/235
