# Blender v3.0.1 OBJ File: ''
# www.blender.org
mtllib scrotumrightarm.mtl
o Scrotus_With_Blade.008_Scrotus_With_Blade.010
v -1.211355 5.200829 3.009110
v -0.793257 4.886532 3.564610
v 0.238245 5.899731 2.703910
v -2.432156 3.949631 3.625610
v -2.657955 4.324928 3.170910
v -0.304956 6.006531 2.194310
v 0.131445 6.647430 1.239110
v 0.781445 6.522331 1.654110
v 0.918844 7.047230 0.054910
v 1.242344 6.024830 -0.115990
v 1.260645 5.231331 0.976610
v 1.324743 4.602730 0.503610
v 0.772345 4.190731 2.038610
v 0.113144 3.497929 2.420110
v 0.943245 3.375832 1.269610
v 1.590244 3.809231 0.054910
v 1.159945 3.027931 0.900310
v 0.497644 2.231430 1.385509
v 0.342045 2.622028 1.733510
v -0.616257 1.529430 1.580909
v -0.863457 1.816330 1.907409
v -1.168655 2.353432 2.404910
v -2.468756 1.410431 1.236009
v -4.138155 3.220230 2.642910
v -3.451456 1.376930 0.192309
v -5.325256 3.037128 1.248210
v -4.046556 3.647430 2.481210
v -5.047556 3.443031 1.330610
v -5.545055 3.751228 -0.103790
v -5.776957 3.333130 -0.149490
v -5.343555 4.334129 -1.678490
v -5.084156 4.666729 -1.379390
v -3.872557 5.713531 -2.334690
v -3.973356 5.622028 -2.829090
v -2.407757 6.500931 -2.822990
v -3.982456 2.988232 -2.352990
v -2.398556 6.497929 -3.372290
v -3.246956 4.389030 -3.396690
v -1.782057 5.185631 -3.503490
v -2.697657 1.770531 -3.433290
v -1.882755 2.887531 -4.254291
v -1.315155 2.197830 -4.202391
v -0.829956 3.439930 -4.446490
v 0.946243 3.711529 -3.765990
v -0.250055 2.948631 -4.232891
v -0.121857 5.686131 -3.024390
v -0.524755 6.955631 -2.706990
v 0.815044 5.686131 -1.882990
v 1.446745 4.648430 -2.218690
v 1.843544 3.629131 -1.519790
v 1.761145 3.580330 -3.054890
v 1.739744 4.373829 -1.000990
v 1.321644 5.283230 -0.680590
v 1.843544 3.015732 -0.598190
v 2.957443 2.002529 -1.510691
v 2.319645 2.863129 -2.087491
v 2.392843 1.547829 -0.341791
v 1.489544 2.307732 0.183110
v 1.404043 0.848930 0.360109
v 0.848644 1.776630 0.665309
v -0.298857 1.068630 0.698909
v -0.048656 0.131729 0.552409
v -1.351755 0.876431 0.207509
v -1.952955 1.135830 0.991909
v -2.505356 0.919128 -0.622591
v -3.820755 1.935329 -0.854491
v -2.001856 0.153130 -0.903291
v -2.642756 0.653629 -2.050791
v -1.602057 0.302631 -2.365191
v -1.727156 1.135830 -3.518791
v -1.482956 -0.475571 -3.100691
v -1.327356 0.150028 -4.278691
v -0.701756 1.346329 -4.882990
v -0.555256 0.751228 -5.413991
v 0.540344 1.663731 -5.322391
v 0.305344 2.268028 -4.754790
v 1.629845 1.981129 -4.748691
v 1.263643 2.658630 -3.881990
v 2.551544 2.231430 -3.479090
v 1.840445 2.734932 -3.048790
v 2.865845 2.124630 -2.551291
v 2.701044 1.328030 -1.977591
v 2.646145 1.553928 -2.740591
v 2.499643 1.596630 -3.668291
v 2.908644 1.285332 -3.753791
v 3.271744 1.074730 -3.118991
v 3.424345 0.629131 -2.374291
v 3.732645 -0.048370 -2.963291
v 2.496645 0.708530 -1.248191
v 3.235144 -0.054470 -1.565591
v 3.580044 -0.786869 -2.023391
v 2.905544 -1.397270 -1.980591
v 2.701044 -1.320969 -1.373291
v 3.390844 -0.823471 -2.789391
v 3.341944 -0.237572 -3.775091
v 2.728544 0.171429 -4.879891
v 3.015444 0.705429 -4.586891
v 3.445744 0.363628 -3.762891
v 2.160944 0.885529 -5.316291
v 1.977844 1.407429 -5.105690
v 0.873045 1.135830 -5.517691
v 0.873045 0.726830 -5.761891
v -0.274456 0.189732 -5.465891
v 0.747944 0.363628 -5.728291
v 1.831345 0.418629 -5.554391
v -0.063856 -0.026970 -5.554391
v -0.356855 -0.622070 -5.136291
v -0.842155 -0.600670 -4.885991
v -0.732256 -1.458271 -3.820891
v -0.970257 -0.295570 -4.580791
v -0.906157 -1.003571 -3.488291
v -0.164557 -1.888569 -2.728391
v -0.314156 -1.388069 -2.401791
v 0.390844 -1.470470 -1.712091
v 0.222944 -1.070671 -1.644891
v -0.964155 -0.918072 -1.733391
v -0.393456 -1.012669 -0.918591
v -1.000856 -0.036171 -1.354991
v -0.759756 -0.057468 -0.717191
v 0.189444 0.247730 -0.439491
v -1.254156 -0.051369 -0.100691
v 0.808945 -0.445068 -0.112891
v 1.846544 0.415531 -0.259391
v 1.141544 -0.676971 -0.701891
v 2.426445 -0.875370 -1.080391
v 1.993044 -0.051369 -0.692791
v 1.620745 -1.323971 -1.089491
v 1.880144 -1.729870 -1.254291
v 0.631945 -1.916069 -1.739591
v 0.515944 -2.041168 -2.899291
v 1.132444 -1.995369 -2.136291
v 2.157845 -1.800072 -1.724291
v 0.064243 -1.830570 -3.588991
v 0.381643 7.114330 -1.666290
v -0.958055 7.089931 -2.264490
v -0.222555 7.205929 -1.235990
v 0.100945 7.123531 0.073210
vt 0.249000 0.922000
vt 0.260200 0.922000
vt 0.248900 0.927800
vt 0.237100 0.922100
vt 0.261000 0.927500
vt 0.236200 0.927200
vt 0.269100 0.921800
vt 0.271300 0.927600
vt 0.280300 0.921200
vt 0.278800 0.912500
vt 0.269700 0.909800
vt 0.270100 0.902600
vt 0.259000 0.907300
vt 0.258400 0.897100
vt 0.250300 0.905800
vt 0.269200 0.893300
vt 0.258800 0.892100
vt 0.248600 0.890600
vt 0.249100 0.895500
vt 0.237200 0.894200
vt 0.237400 0.890200
vt 0.237800 0.901100
vt 0.223000 0.892800
vt 0.222500 0.922700
vt 0.210100 0.889600
vt 0.222300 0.926600
vt 0.209000 0.921300
vt 0.209800 0.927500
vt 0.374100 0.928400
vt 0.361900 0.928300
vt 0.373900 0.923900
vt 0.362700 0.924600
vt 0.349000 0.923400
vt 0.348400 0.928000
vt 0.331500 0.922600
vt 0.331900 0.927300
vt 0.316800 0.927000
vt 0.317200 0.922000
vt 0.347500 0.901300
vt 0.331600 0.905900
vt 0.317800 0.905900
vt 0.329100 0.884400
vt 0.343900 0.883100
vt 0.318500 0.883700
vt 0.329500 0.874800
vt 0.303100 0.905500
vt 0.301800 0.880800
vt 0.315600 0.876200
vt 0.302700 0.920600
vt 0.291100 0.905600
vt 0.289300 0.892200
vt 0.279800 0.884700
vt 0.279000 0.893400
vt 0.292300 0.879400
vt 0.280300 0.904100
vt 0.269700 0.883100
vt 0.272000 0.866400
vt 0.261000 0.869200
vt 0.281000 0.873900
vt 0.259000 0.881700
vt 0.247700 0.869500
vt 0.249500 0.881700
vt 0.236100 0.880700
vt 0.224800 0.888300
vt 0.224300 0.879400
vt 0.233600 0.872100
vt 0.209700 0.878100
vt 0.375200 0.901000
vt 0.364000 0.900500
vt 0.374900 0.889200
vt 0.361800 0.882500
vt 0.209600 0.869700
vt 0.375100 0.878200
vt 0.361200 0.868500
vt 0.344300 0.870600
vt 0.342500 0.854600
vt 0.357600 0.856600
vt 0.327800 0.859600
vt 0.328100 0.848300
vt 0.314100 0.864500
vt 0.315000 0.853700
vt 0.302700 0.855500
vt 0.300600 0.868800
vt 0.290700 0.870700
vt 0.288600 0.860700
vt 0.280300 0.863200
vt 0.279600 0.856500
vt 0.271700 0.857600
vt 0.288400 0.853400
vt 0.286400 0.847900
vt 0.279200 0.847100
vt 0.271200 0.846000
vt 0.260700 0.835600
vt 0.272000 0.836600
vt 0.261500 0.856300
vt 0.261200 0.844400
vt 0.251100 0.829800
vt 0.265200 0.829100
vt 0.248200 0.835900
vt 0.279000 0.830000
vt 0.290900 0.838000
vt 0.294200 0.830500
vt 0.281300 0.837000
vt 0.301700 0.839000
vt 0.302000 0.846200
vt 0.313700 0.845000
vt 0.315300 0.838400
vt 0.306100 0.832300
vt 0.318200 0.833300
vt 0.329400 0.838800
vt 0.329000 0.833300
vt 0.338900 0.834000
vt 0.340900 0.840700
vt 0.357000 0.841000
vt 0.341400 0.846400
vt 0.357800 0.847300
vt 0.374700 0.846300
vt 0.374600 0.840300
vt 0.211000 0.835500
vt 0.222900 0.840500
vt 0.211600 0.841900
vt 0.222200 0.845100
vt 0.210700 0.851300
vt 0.374900 0.856700
vt 0.221300 0.853700
vt 0.210600 0.860000
vt 0.374400 0.866700
vt 0.219400 0.863000
vt 0.231800 0.863700
vt 0.221000 0.870500
vt 0.236900 0.857200
vt 0.250400 0.861000
vt 0.237900 0.850100
vt 0.249800 0.853600
vt 0.248300 0.841600
vt 0.238100 0.839900
vt 0.237900 0.835000
vt 0.224100 0.835800
vt 0.225400 0.828100
vt 0.211500 0.828000
vt 0.238900 0.828600
vt 0.362500 0.834100
vt 0.374200 0.833100
vt 0.292700 0.920300
vt 0.303300 0.926800
vt 0.292900 0.926800
vt 0.281800 0.927800
vn 0.1628 0.2329 0.9588
vn 0.3820 0.5621 0.7336
vn -0.3010 0.7254 0.6190
vn -0.2295 -0.0215 0.9731
vn 0.3820 0.5621 0.7335
vn -0.2403 0.8533 0.4628
vn -0.4645 0.5507 0.6935
vn 0.5497 0.6728 0.4951
vn -0.0516 0.9160 0.3978
vn 0.6400 0.7638 0.0839
vn 0.5497 0.6728 0.4952
vn 0.9677 0.2467 -0.0514
vn 0.9618 0.0707 0.2643
vn 0.9619 0.0707 0.2643
vn 0.9664 0.0548 0.2513
vn 0.8181 -0.1474 0.5558
vn 0.8401 -0.1586 0.5187
vn 0.5703 -0.3595 0.7386
vn 0.9356 0.0794 0.3439
vn 0.8282 -0.1243 0.5465
vn 0.6132 -0.4479 0.6507
vn 0.6088 -0.3790 0.6970
vn 0.1688 -0.6421 0.7478
vn 0.2560 -0.7235 0.6411
vn 0.1440 -0.5932 0.7920
vn -0.2672 -0.7997 0.5376
vn 0.1440 -0.5932 0.7921
vn -0.5826 -0.2444 0.7752
vn -0.5826 -0.2444 0.7751
vn 0.1627 0.2329 0.9588
vn -0.3712 -0.8554 0.3611
vn -0.5827 -0.2444 0.7751
vn -0.6389 0.3883 0.6641
vn -0.6742 -0.3928 0.6254
vn -0.7282 0.3813 0.5695
vn -0.7283 0.3811 0.5695
vn -0.7981 0.4694 0.3777
vn -0.8600 0.4700 0.1988
vn -0.9544 -0.1681 0.2466
vn -0.9757 -0.2189 -0.0119
vn -0.8931 0.1449 -0.4259
vn -0.7739 0.6332 -0.0146
vn -0.6767 0.4965 -0.5436
vn -0.5830 0.8119 -0.0316
vn -0.4314 0.9020 -0.0160
vn -0.2397 0.6663 -0.7061
vn -0.7324 -0.3705 -0.5713
vn -0.5202 0.0343 -0.8533
vn -0.0064 0.2859 -0.9582
vn -0.3648 -0.0523 -0.9296
vn -0.6142 -0.4267 -0.6638
vn 0.0431 0.1617 -0.9859
vn -0.3911 -0.0896 -0.9160
vn 0.4429 0.4505 -0.7751
vn 0.4733 0.3852 -0.7922
vn 0.1406 0.2038 -0.9689
vn 0.3022 0.6996 -0.6474
vn 0.7933 0.4495 -0.4106
vn 0.4429 0.4505 -0.7752
vn 0.8156 0.4866 -0.3131
vn 0.9496 0.3124 0.0270
vn 0.9595 0.2800 0.0319
vn 0.8075 0.3728 -0.4571
vn 0.9431 0.3258 -0.0658
vn 0.9663 0.0548 0.2513
vn 0.8990 0.2559 0.3555
vn 0.9705 0.1664 0.1744
vn 0.7946 -0.0008 0.6071
vn 0.8179 0.5695 -0.0815
vn 0.7457 0.0319 0.6655
vn 0.4253 -0.2858 0.8588
vn 0.5272 -0.2938 0.7973
vn 0.0977 -0.5573 0.8245
vn -0.1329 -0.8938 0.4284
vn -0.3296 -0.7411 0.5850
vn 0.1183 -0.7258 0.6777
vn -0.3614 -0.8339 0.4172
vn -0.6371 -0.7505 -0.1756
vn -0.6918 -0.6971 -0.1883
vn -0.6824 -0.7244 0.0981
vn -0.6298 -0.7433 -0.2253
vn -0.4831 -0.7631 0.4292
vn -0.5470 -0.8367 -0.0251
vn -0.7573 -0.6463 -0.0933
vn -0.6299 -0.7433 -0.2253
vn -0.7261 -0.3648 -0.5829
vn -0.7260 -0.3648 -0.5829
vn -0.8744 -0.1875 -0.4476
vn -0.8732 -0.4819 -0.0724
vn -0.6157 0.3388 -0.7114
vn -0.5730 0.1521 -0.8053
vn -0.0436 0.6560 -0.7535
vn -0.0533 0.5307 -0.8459
vn 0.4044 0.6865 -0.6043
vn 0.4431 0.5980 -0.6679
vn 0.7382 0.5065 -0.4456
vn 0.7959 0.4845 -0.3630
vn 0.9448 0.2453 -0.2172
vn 0.9597 0.2668 -0.0884
vn 0.9862 0.0876 0.1405
vn 0.7997 0.5073 -0.3211
vn 0.6839 0.6913 -0.2330
vn 0.7934 0.6081 -0.0270
vn 0.8510 0.4300 0.3015
vn 0.8906 -0.3545 0.2850
vn 0.9954 -0.0247 -0.0926
vn 0.8388 0.0079 0.5444
vn 0.7462 0.1483 0.6490
vn 0.6275 -0.7504 0.2078
vn 0.8241 -0.5263 -0.2092
vn 0.5615 -0.5303 0.6352
vn 0.8242 -0.5263 -0.2092
vn 0.5615 -0.5302 0.6353
vn 0.8777 -0.2204 -0.4255
vn 0.8055 0.2795 -0.5225
vn 0.7274 -0.0383 -0.6851
vn 0.9214 0.1604 -0.3539
vn 0.5036 0.2913 -0.8134
vn 0.4493 0.5928 -0.6684
vn 0.5035 0.2913 -0.8134
vn 0.0683 0.4670 -0.8816
vn 0.4043 0.6867 -0.6042
vn 0.0167 0.2224 -0.9748
vn 0.3830 0.1373 -0.9135
vn -0.1123 -0.0430 -0.9927
vn -0.4854 -0.1180 -0.8663
vn 0.5036 0.2913 -0.8133
vn -0.4310 -0.0509 -0.9009
vn -0.4442 -0.4221 -0.7902
vn -0.7707 -0.2944 -0.5651
vn -0.7363 -0.6633 -0.1341
vn -0.8815 -0.2343 -0.4100
vn -0.8399 -0.5420 -0.0288
vn -0.7463 -0.6487 0.1490
vn -0.6113 -0.7889 0.0625
vn -0.4719 -0.7898 0.3918
vn -0.5816 -0.4161 0.6990
vn -0.4699 -0.6793 0.5637
vn -0.3437 -0.7844 0.5163
vn -0.5018 -0.7555 0.4212
vn -0.8140 -0.5476 0.1935
vn -0.3637 -0.7702 0.5239
vn -0.3637 -0.7702 0.5240
vn -0.6313 -0.7200 0.2881
vn -0.7574 -0.6463 -0.0933
vn -0.6936 -0.6978 0.1788
vn -0.2847 -0.8929 0.3487
vn -0.4832 -0.7631 0.4292
vn -0.2847 -0.8930 0.3487
vn -0.0940 -0.7341 0.6725
vn -0.3893 -0.7995 0.4574
vn 0.1183 -0.7257 0.6777
vn -0.3296 -0.7411 0.5849
vn -0.0088 -0.5449 0.8384
vn 0.4253 -0.2858 0.8587
vn -0.0088 -0.5449 0.8385
vn 0.4252 -0.2858 0.8588
vn 0.6653 -0.4025 0.6288
vn 0.1737 -0.6931 0.6996
vn -0.0088 -0.5450 0.8384
vn 0.5458 -0.2725 0.7924
vn 0.4210 -0.2397 0.8748
vn -0.0535 -0.4538 0.8895
vn 0.1277 -0.7249 0.6769
vn -0.3517 -0.7484 0.5623
vn 0.0047 -0.9824 0.1867
vn -0.1524 -0.9809 0.1211
vn 0.3406 -0.8907 0.3012
vn 0.5616 -0.5302 0.6352
vn 0.3406 -0.8906 0.3012
vn -0.3378 -0.9236 -0.1812
vn -0.2481 -0.9599 -0.1306
vn 0.5615 -0.5302 0.6352
vn 0.5628 0.7512 -0.3448
vn -0.0365 0.9640 -0.2634
vn 0.0945 0.9936 -0.0622
vn 0.3022 0.6997 -0.6474
vn 0.0954 0.9759 0.1965
vn 0.3023 0.6996 -0.6474
usemtl Tex_0042_0_dds.001
s 1
f 2/1/1 3/2/2 1/3/3
f 2/1/1 1/3/3 4/4/4
f 1/3/3 3/2/5 6/5/6
f 4/4/4 1/3/3 5/6/7
f 3/2/5 8/7/8 6/5/6
f 6/5/6 8/7/8 7/8/9
f 9/9/10 7/8/9 8/7/8
f 8/7/11 10/10/12 9/9/10
f 11/11/13 10/10/12 8/7/8
f 3/2/2 11/11/14 8/7/8
f 12/12/15 10/10/12 11/11/13
f 11/11/14 13/13/16 12/12/15
f 13/13/16 11/11/14 3/2/2
f 12/12/15 13/13/16 15/14/17
f 14/15/18 13/13/16 2/1/1
f 14/15/18 15/14/17 13/13/16
f 2/1/1 13/13/16 3/2/2
f 12/12/15 15/14/17 16/16/19
f 16/16/19 15/14/17 17/17/20
f 17/17/20 15/14/17 18/18/21
f 18/18/21 15/14/17 19/19/22
f 19/19/22 15/14/17 14/15/18
f 21/20/23 20/21/24 19/19/22
f 19/19/22 20/21/24 18/18/21
f 22/22/25 21/20/23 19/19/22
f 19/19/22 14/15/18 22/22/25
f 22/22/25 23/23/26 21/20/23
f 22/22/27 24/24/28 23/23/26
f 4/4/4 24/24/29 22/22/25
f 22/22/25 2/1/1 4/4/4
f 14/15/18 2/1/30 22/22/25
f 24/24/29 25/25/31 23/23/26
f 5/6/7 24/24/32 4/4/4
f 27/26/33 24/24/29 5/6/7
f 26/27/34 25/25/31 24/24/29
f 24/24/29 28/28/35 26/27/34
f 27/26/33 28/28/36 24/24/29
f 28/29/37 29/30/38 26/31/39
f 26/31/39 29/30/38 30/32/40
f 30/32/40 29/30/38 31/33/41
f 31/33/41 29/30/38 32/34/42
f 34/35/43 32/34/42 33/36/44
f 31/33/41 32/34/42 34/35/43
f 34/35/43 35/37/45 37/38/46
f 33/36/44 35/37/45 34/35/43
f 31/33/41 34/35/43 36/39/47
f 36/39/47 34/35/43 38/40/48
f 34/35/43 37/38/46 38/40/48
f 38/40/48 37/38/46 39/41/49
f 38/40/48 39/41/49 41/42/50
f 40/43/51 38/40/48 41/42/50
f 36/39/47 38/40/48 40/43/51
f 41/42/50 39/41/49 43/44/52
f 42/45/53 40/43/51 41/42/50
f 41/42/50 43/44/52 42/45/53
f 39/41/49 46/46/54 43/44/52
f 43/44/52 46/46/54 44/47/55
f 43/44/52 44/47/55 45/48/56
f 42/45/53 43/44/52 45/48/56
f 46/46/54 47/49/57 48/50/58
f 39/41/49 47/49/57 46/46/59
f 48/50/58 49/51/60 46/46/54
f 46/46/54 49/51/60 44/47/55
f 50/52/61 49/51/60 52/53/62
f 51/54/63 49/51/60 50/52/61
f 44/47/55 49/51/60 51/54/63
f 49/51/60 53/55/64 52/53/62
f 48/50/58 53/55/64 49/51/60
f 48/50/58 10/10/12 53/55/64
f 53/55/64 12/12/65 52/53/62
f 53/55/64 10/10/12 12/12/65
f 50/52/61 52/53/62 54/56/66
f 52/53/62 12/12/15 16/16/19
f 54/56/66 52/53/62 16/16/19
f 55/57/67 54/56/66 57/58/68
f 55/57/67 56/59/69 54/56/66
f 54/56/66 56/59/69 50/52/61
f 54/56/66 16/16/19 58/60/70
f 57/58/68 54/56/66 58/60/70
f 57/58/68 58/60/70 59/61/71
f 58/60/70 16/16/19 17/17/20
f 58/60/70 17/17/20 60/62/72
f 59/61/71 58/60/70 60/62/72
f 60/62/72 17/17/20 18/18/21
f 60/62/72 61/63/73 59/61/71
f 60/62/72 18/18/21 61/63/73
f 20/21/24 64/64/74 61/63/73
f 61/63/73 18/18/21 20/21/24
f 61/63/73 63/65/75 62/66/76
f 59/61/71 61/63/73 62/66/76
f 61/63/73 64/64/74 63/65/75
f 64/64/74 25/25/31 65/67/77
f 63/65/75 64/64/74 65/67/77
f 23/23/26 25/25/31 64/64/74
f 21/20/23 64/64/74 20/21/24
f 23/23/26 64/64/74 21/20/23
f 25/68/78 66/69/79 65/70/80
f 65/70/80 66/69/79 68/71/81
f 67/72/82 63/65/75 65/67/77
f 67/73/83 65/70/80 68/71/81
f 69/74/84 68/71/85 70/75/86
f 69/74/84 67/73/83 68/71/81
f 70/75/87 68/71/81 40/43/51
f 68/71/81 36/39/47 40/43/51
f 66/69/79 36/39/47 68/71/81
f 72/76/88 71/77/89 70/75/87
f 70/75/87 71/77/89 69/74/84
f 72/76/88 70/75/87 73/78/90
f 70/75/87 40/43/51 42/45/53
f 73/78/90 70/75/87 42/45/53
f 72/76/88 73/78/90 74/79/91
f 73/78/90 42/45/53 76/80/92
f 73/78/90 75/81/93 74/79/91
f 76/80/92 75/81/93 73/78/90
f 76/80/92 42/45/53 45/48/56
f 76/80/92 77/82/94 75/81/93
f 78/83/95 77/82/94 76/80/92
f 76/80/92 45/48/56 78/83/95
f 44/47/55 51/54/63 78/83/95
f 78/83/95 51/54/63 80/84/96
f 78/83/95 45/48/56 44/47/55
f 80/84/96 79/85/97 78/83/95
f 78/83/95 79/85/97 77/82/94
f 80/84/96 81/86/98 79/85/97
f 56/59/69 81/86/98 80/84/96
f 51/54/63 56/59/69 80/84/96
f 83/87/99 79/85/97 81/86/98
f 82/88/100 81/86/98 55/57/67
f 83/87/99 81/86/98 82/88/100
f 56/59/69 55/57/67 81/86/98
f 84/89/101 79/85/97 83/87/99
f 84/89/101 83/87/99 85/90/102
f 85/90/102 83/87/99 86/91/103
f 86/91/103 83/87/99 87/92/104
f 87/92/104 83/87/99 82/88/100
f 87/92/104 91/93/105 88/94/106
f 88/94/106 86/91/103 87/92/104
f 82/88/100 89/95/107 87/92/104
f 87/92/104 89/95/107 90/96/108
f 90/96/108 91/93/105 87/92/104
f 92/97/109 94/98/110 91/93/105
f 91/93/105 93/99/111 92/97/109
f 94/98/112 88/94/106 91/93/105
f 90/96/108 93/99/113 91/93/105
f 94/98/110 95/100/114 88/94/106
f 97/101/115 95/100/114 96/102/116
f 98/103/117 95/100/114 97/101/115
f 98/103/117 88/94/106 95/100/114
f 86/91/103 98/103/117 85/90/102
f 85/90/102 98/103/117 97/101/115
f 98/103/117 86/91/103 88/94/106
f 99/104/118 100/105/119 97/101/115
f 97/101/115 96/102/116 99/104/120
f 97/101/115 100/105/119 85/90/102
f 100/105/119 99/104/118 101/106/121
f 101/106/121 77/82/94 100/105/119
f 77/82/122 84/89/101 100/105/119
f 100/105/119 84/89/101 85/90/102
f 101/106/121 99/104/118 102/107/123
f 101/106/121 102/107/123 74/79/91
f 75/81/93 77/82/94 101/106/121
f 74/79/91 75/81/93 101/106/121
f 99/104/118 105/108/124 102/107/123
f 102/107/123 104/109/125 103/110/126
f 74/79/91 102/107/123 103/110/126
f 102/107/123 105/108/124 104/109/125
f 99/104/127 96/102/116 105/108/124
f 103/110/126 104/109/125 106/111/128
f 107/112/129 103/110/126 106/111/128
f 108/113/130 103/110/126 107/112/129
f 109/114/131 110/115/132 108/113/130
f 110/115/132 103/110/126 108/113/130
f 111/116/133 110/115/132 109/114/131
f 74/79/91 103/110/126 110/115/132
f 111/116/133 72/76/88 110/115/132
f 110/115/132 72/76/88 74/79/91
f 113/117/134 111/116/133 112/118/135
f 112/118/135 111/116/133 109/114/131
f 113/117/134 71/77/89 111/116/133
f 71/77/89 72/76/88 111/116/133
f 112/119/136 114/120/137 113/121/138
f 115/122/139 113/121/138 114/120/137
f 115/122/139 116/123/140 113/121/138
f 116/124/141 71/77/89 113/117/134
f 71/77/89 116/124/141 69/74/84
f 117/125/142 116/123/140 115/122/139
f 116/123/140 117/125/143 118/126/144
f 69/74/145 116/124/141 118/127/146
f 118/127/146 67/73/83 69/74/84
f 119/128/147 67/72/148 118/126/144
f 118/126/144 117/125/142 119/128/149
f 120/129/150 62/66/76 119/128/147
f 117/125/142 120/129/150 119/128/147
f 121/130/151 67/72/82 119/128/147
f 119/128/147 62/66/76 121/130/151
f 62/66/152 63/65/75 121/130/151
f 121/130/151 63/65/153 67/72/82
f 122/131/154 59/61/155 120/129/150
f 122/131/156 120/129/150 117/125/142
f 59/61/157 62/66/76 120/129/150
f 123/132/158 59/61/71 122/131/154
f 124/133/159 123/132/158 122/131/160
f 122/131/154 117/125/142 124/133/159
f 126/134/161 123/132/158 124/133/159
f 126/134/161 124/133/159 125/135/162
f 125/135/162 124/133/159 127/136/163
f 114/120/137 124/133/159 115/122/139
f 127/136/163 124/133/159 114/120/137
f 124/133/159 117/125/142 115/122/139
f 128/137/164 125/135/162 127/136/163
f 128/137/164 127/136/163 129/138/165
f 129/138/165 127/136/163 114/120/137
f 129/138/165 131/139/166 128/137/164
f 129/138/165 114/120/137 112/119/136
f 130/140/167 129/138/165 112/119/136
f 131/139/166 129/138/165 130/140/167
f 128/137/164 131/139/166 132/141/168
f 93/99/169 132/141/168 92/97/109
f 128/137/164 132/141/170 93/99/113
f 133/142/171 130/143/172 112/118/135
f 112/118/135 109/114/131 133/142/171
f 93/99/113 125/135/162 128/137/164
f 89/95/107 123/132/158 126/134/161
f 90/96/108 126/134/161 125/135/162
f 89/95/107 126/134/161 90/96/108
f 125/135/162 93/99/173 90/96/108
f 57/58/68 123/132/158 89/95/107
f 57/58/68 59/61/155 123/132/158
f 82/88/100 55/57/67 89/95/107
f 89/95/107 55/57/67 57/58/68
f 79/85/97 84/89/101 77/82/94
f 25/68/78 26/31/39 66/69/79
f 66/69/79 26/31/39 30/32/40
f 30/32/40 36/39/47 66/69/79
f 56/59/69 51/54/63 50/52/61
f 48/50/58 47/49/57 134/144/174
f 134/144/174 10/10/12 48/50/58
f 134/144/174 135/145/175 136/146/176
f 47/49/177 135/145/175 134/144/174
f 10/10/12 134/144/174 9/9/10
f 134/144/174 136/146/176 9/9/10
f 9/9/10 136/146/176 137/147/178
f 137/147/178 7/8/9 9/9/10
f 35/37/45 135/145/175 37/38/46
f 37/38/46 135/145/175 47/49/57
f 37/38/46 47/49/179 39/41/49
f 31/33/41 36/39/47 30/32/40
