# Blender v3.0.1 OBJ File: ''
# www.blender.org
mtllib scrotumshoulderright.mtl
o Scrotus_With_Blade.011_Scrotus_With_Blade.016
v 10.290800 10.989136 0.390236
v 10.953100 12.188431 0.316936
v 11.578700 11.846634 0.045336
v 12.753700 11.529236 -0.110264
v 12.411900 11.532333 -9.836564
v 6.582800 12.078636 -11.267864
v 3.674400 16.519035 -7.642263
v 3.540100 15.218933 -7.794863
v 3.878900 15.450935 -8.344163
v 4.123100 17.330833 -7.416463
v 3.665300 13.894432 -8.267863
v 4.742600 15.389832 -8.075664
v 4.889100 16.787636 -6.720563
v 5.700900 16.198631 -6.491763
v 3.921600 14.245430 -9.070563
v 4.678500 14.571930 -8.762263
v 4.321400 13.168137 -9.921964
v 5.203400 13.528236 -9.662563
v 7.336600 14.571930 -8.975964
v 6.860600 15.310532 -8.176363
v 8.188100 13.311531 -10.514064
v 6.762900 11.843636 -11.649364
v 8.716100 14.761230 -9.543564
v 8.185100 15.325737 -8.280064
v 6.640800 16.308434 -6.784663
v 6.756800 16.863930 -4.742963
v 5.746600 17.138535 -4.639263
v 8.551300 16.213837 -6.604663
v 6.628600 16.543434 -2.820363
v 5.017200 17.239334 -2.792863
v 8.636700 16.555634 -5.109263
v 6.967400 16.799835 -2.777663
v 8.664200 16.458031 -2.905763
v 6.939900 16.189430 -1.498863
v 6.430200 15.923935 -1.572163
v 5.407900 15.930031 -1.041163
v 6.900200 15.692032 -0.171363
v 5.746600 15.005333 -0.388063
v 4.107800 16.415337 -1.031963
v 3.442500 17.211830 -1.657563
v 2.011200 15.789635 -0.311763
v 1.629700 15.344131 0.396337
v 3.357000 16.094833 -0.030963
v 4.351900 16.522133 -0.330063
v 5.380400 16.058235 -0.052363
v 3.701900 16.360336 0.521437
v 4.498400 16.635033 0.320037
v 5.139300 16.226036 0.506137
v 4.351900 15.170135 1.049437
v 5.438400 15.084633 0.524436
v 5.053900 15.417336 0.902937
v 5.652000 14.169136 0.216237
v 4.272600 14.709335 0.753336
v 5.169800 13.735733 1.324036
v 3.677500 15.560730 0.869337
v 3.430300 15.371536 0.313937
v 1.641900 14.843536 0.689237
v 2.667300 14.678833 0.963937
v 3.939900 14.605530 0.771636
v 4.458800 13.473335 1.339336
v 5.316300 13.039932 1.656736
v 4.632700 12.496735 1.772736
v 5.908400 12.319733 1.964936
v 6.152500 13.305435 0.619136
v 7.275600 12.835434 1.876436
v 6.534000 14.962631 0.832736
v 8.352900 15.209831 -0.388063
v 7.049800 14.346130 1.217237
v 7.800500 13.680832 1.501036
v 8.618400 13.879234 0.826636
v 10.263400 12.356331 1.711636
v 9.881900 11.544533 2.074836
v 10.803600 11.459137 1.614036
v 8.612300 15.902534 -1.492763
v 9.180000 14.999237 -0.467363
v 9.576700 16.009430 -1.376863
v 10.489200 13.039932 0.829637
v 11.175900 14.648232 -0.519264
v 9.726200 16.747932 -2.994263
v 9.677400 17.065331 -5.243463
v 11.645900 15.591331 -1.688063
v 11.835100 16.277931 -3.488663
v 9.595000 16.799835 -6.821363
v 11.822900 16.433632 -5.322863
v 11.655000 16.076530 -7.141763
v 12.677400 15.569931 -5.240463
v 12.530900 15.252533 -7.068563
v 9.189100 15.820137 -8.771463
v 11.310200 15.283035 -8.719563
v 11.017200 14.306435 -9.671763
v 12.176900 14.044037 -8.914864
v 10.522800 13.287132 -10.388964
v 12.836100 12.661530 -9.949464
v 10.229800 12.692032 -10.535463
v 12.555300 11.788635 -10.160064
v 12.665200 11.388931 -10.596464
v 13.095500 13.882233 -9.140763
v 13.522800 11.193535 -9.363464
v 13.913400 11.303436 -10.184464
v 15.472900 11.279030 -8.786664
v 14.093400 12.872131 -9.339064
v 15.796400 11.202736 -9.452065
v 15.649900 12.264732 -8.682963
v 15.390500 11.968735 -8.289264
v 15.997800 11.279030 -8.399164
v 16.483000 11.318733 -9.052264
v 17.007999 11.373634 -7.556864
v 17.899099 11.599434 -7.373664
v 17.832001 11.584236 -6.342164
v 16.998800 12.646233 -7.157063
v 18.646799 11.913834 -6.033964
v 18.326401 11.654434 -4.749063
v 17.487101 12.981934 -5.402164
v 18.765800 11.816132 -4.962764
v 18.716999 11.953537 -3.915964
v 17.676300 11.538437 -3.009564
v 15.463700 13.964630 -7.114264
v 18.173800 11.718536 -2.722664
v 17.444401 12.905632 -3.500864
v 17.041500 11.526230 -1.428664
v 16.431200 12.722534 -1.828464
v 16.653900 11.355331 -1.862064
v 15.463700 11.309532 -0.375764
v 15.195200 11.239334 -0.928164
v 14.008000 11.364433 0.201036
v 13.525800 11.361435 -0.369664
v 13.052800 11.398033 0.497036
v 12.817800 11.736832 0.060636
v 13.333500 13.152832 -0.442964
v 11.749600 12.133530 0.130836
v 12.231800 13.729630 -0.696263
v 11.142300 12.161034 1.171436
v 11.053800 11.971832 1.717736
v 10.934800 11.718536 0.963936
v 10.776100 11.382736 1.305736
v 10.553300 10.897530 1.165336
v 12.622500 14.602531 -1.639264
v 13.669200 14.141632 -1.321864
v 12.787300 15.359337 -3.125563
v 14.023300 15.182335 -2.618964
v 14.127000 15.566833 -5.020763
v 15.216500 14.144730 -2.423563
v 13.687600 15.145737 -7.367563
v 14.496300 13.854736 -8.206863
v 15.884900 14.288132 -5.078664
v 15.680400 14.230133 -3.479563
v 14.603100 13.693031 -1.297463
v 14.648900 12.679832 -0.641364
v 13.950000 12.429535 -8.054264
v 14.374200 13.015533 -6.180464
v 14.673300 12.786636 -3.793864
v 13.950000 12.127434 -1.556864
v 8.230800 12.182335 -11.566964
v 7.947000 11.660530 -12.149864
v 9.167800 11.913834 -11.484564
v 9.253200 11.349236 -11.975864
v 9.845300 11.703232 -11.167164
vt 0.195900 0.593325
vt 0.196000 0.605500
vt 0.192900 0.594000
vt 0.190800 0.613500
vt 0.197981 0.583025
vt 0.184100 0.594400
vt 0.178800 0.612700
vt 0.169400 0.608400
vt 0.193900 0.582200
vt 0.186700 0.584900
vt 0.194700 0.570200
vt 0.185700 0.572300
vt 0.178600 0.552500
vt 0.164400 0.578700
vt 0.165400 0.588700
vt 0.162200 0.561100
vt 0.177600 0.548800
vt 0.153600 0.573500
vt 0.154800 0.585100
vt 0.161500 0.603500
vt 0.151400 0.620800
vt 0.159900 0.627300
vt 0.145700 0.598500
vt 0.140100 0.635900
vt 0.154100 0.645900
vt 0.138600 0.609200
vt 0.137400 0.633100
vt 0.126700 0.623300
vt 0.128500 0.641600
vt 0.131700 0.645600
vt 0.135100 0.655500
vt 0.119400 0.648400
vt 0.124300 0.658000
vt 0.145900 0.663600
vt 0.157100 0.663400
vt 0.151700 0.682200
vt 0.143200 0.674800
vt 0.148900 0.688100
vt 0.140500 0.666300
vt 0.132600 0.662800
vt 0.139000 0.672800
vt 0.137600 0.668400
vt 0.133000 0.666500
vt 0.129900 0.674000
vt 0.124800 0.666200
vt 0.128800 0.669100
vt 0.117600 0.663100
vt 0.127100 0.676600
vt 0.115700 0.672700
vt 0.135500 0.675300
vt 0.137400 0.678800
vt 0.144500 0.690600
vt 0.135800 0.686300
vt 0.127900 0.679500
vt 0.117300 0.678500
vt 0.109900 0.674000
vt 0.109400 0.680400
vt 0.101900 0.672600
vt 0.110200 0.664600
vt 0.097200 0.662100
vt 0.113700 0.654800
vt 0.111200 0.640200
vt 0.107900 0.655200
vt 0.100200 0.654800
vt 0.099000 0.646900
vt 0.080800 0.646100
vt 0.076500 0.651700
vt 0.073000 0.644700
vt 0.117900 0.632100
vt 0.106500 0.635700
vt 0.112500 0.627000
vt 0.084900 0.638500
vt 0.095800 0.625200
vt 0.121100 0.617100
vt 0.131400 0.604200
vt 0.102600 0.616100
vt 0.111200 0.605900
vt 0.137600 0.594500
vt 0.119000 0.596000
vt 0.126300 0.585500
vt 0.112200 0.592100
vt 0.119800 0.580900
vt 0.146500 0.581400
vt 0.133400 0.575000
vt 0.138300 0.566000
vt 0.128200 0.566100
vt 0.144100 0.557200
vt 0.126700 0.551600
vt 0.147454 0.550601
vt 0.129300 0.543200
vt 0.130500 0.538700
vt 0.124900 0.542200
vt 0.122600 0.562600
vt 0.117900 0.538207
vt 0.116600 0.541300
vt 0.101200 0.540200
vt 0.116300 0.554200
vt 0.104400 0.543200
vt 0.099800 0.550400
vt 0.097600 0.546900
vt 0.090400 0.544800
vt 0.091100 0.550400
vt 0.080300 0.549700
vt 0.080300 0.557000
vt 0.073500 0.558200
vt 0.089700 0.563000
vt 0.075800 0.564700
vt 0.068200 0.569200
vt 0.083700 0.573000
vt 0.072000 0.569700
vt 0.070600 0.575700
vt 0.064000 0.582100
vt 0.101700 0.569800
vt 0.067800 0.583000
vt 0.077300 0.582900
vt 0.065600 0.593600
vt 0.074000 0.594400
vt 0.061500 0.593400
vt 0.064700 0.605400
vt 0.060500 0.606000
vt 0.065100 0.614900
vt 0.060800 0.618300
vt 0.067300 0.620500
vt 0.066100 0.626000
vt 0.069100 0.624200
vt 0.079600 0.615100
vt 0.075200 0.629600
vt 0.073100 0.631300
vt 0.077100 0.634900
vt 0.087100 0.619900
vt 0.077100 0.640500
vt 0.076400 0.643400
vt 0.073900 0.639700
vt 0.071700 0.642600
vt 0.066400 0.636400
vt 0.067500 0.642100
vt 0.093800 0.612300
vt 0.086700 0.608600
vt 0.102200 0.603600
vt 0.094200 0.600500
vt 0.103700 0.588500
vt 0.085600 0.596800
vt 0.113800 0.576100
vt 0.110800 0.564700
vt 0.093200 0.581200
vt 0.088000 0.590000
vt 0.081800 0.604500
vt 0.074500 0.607600
vt 0.060700 0.547507
vt 0.059700 0.532100
vt 0.071100 0.539100
vt 0.065200 0.531100
vt 0.082000 0.531800
vt 0.060700 0.527100
vt 0.063700 0.519200
vt 0.069200 0.511300
vt 0.077100 0.503900
vt 0.094600 0.522500
vt 0.089100 0.501700
vt 0.099100 0.503000
vt 0.109900 0.517900
vt 0.109700 0.507300
vt 0.118700 0.514200
vt 0.122700 0.517900
vt 0.165500 0.549000
vt 0.169200 0.543800
vt 0.158600 0.545900
vt 0.160000 0.540400
vt 0.152800 0.544200
vn -0.2212 0.1952 -0.9555
vn -0.2639 0.3463 -0.9002
vn -0.4140 0.3982 -0.8186
vn 0.4722 0.4759 -0.7420
vn -0.3740 0.5127 -0.7728
vn 0.2432 0.6327 -0.7352
vn 0.6691 0.4799 -0.5674
vn 0.0752 0.8606 -0.5037
vn -0.6265 0.3634 -0.6895
vn 0.0491 0.6227 -0.7809
vn -0.3740 0.5128 -0.7728
vn -0.0986 0.7799 -0.6181
vn -0.0734 0.6682 -0.7403
vn -0.0986 0.7798 -0.6182
vn -0.1367 0.7206 -0.6798
vn -0.1731 0.7196 -0.6725
vn -0.0590 0.7719 -0.6330
vn -0.0545 0.6395 -0.7669
vn -0.3044 0.6026 -0.7377
vn -0.1872 0.6442 -0.7416
vn -0.2983 0.8050 -0.5128
vn -0.0983 0.8971 -0.4308
vn 0.1409 0.9829 -0.1185
vn 0.2861 0.9532 -0.0978
vn -0.2419 0.9249 -0.2932
vn -0.1484 0.9424 0.2996
vn 0.3609 0.8478 0.3886
vn -0.1484 0.9425 0.2996
vn -0.1592 0.9843 -0.0759
vn -0.1932 0.9515 0.2394
vn -0.0242 0.9742 0.2245
vn -0.1438 0.9084 0.3926
vn -0.1279 0.8734 0.4699
vn 0.4937 0.7896 0.3645
vn -0.0637 0.8799 0.4709
vn 0.3022 0.7637 0.5705
vn 0.1343 0.9260 0.3529
vn 0.2410 0.7160 0.6552
vn -0.1242 0.8709 0.4755
vn -0.4601 0.8142 0.3540
vn 0.0100 0.6777 0.7352
vn -0.4599 0.8152 0.3521
vn -0.4601 0.8142 0.3541
vn 0.0231 0.9876 -0.1554
vn 0.4937 0.7895 0.3645
vn 0.7981 0.5990 0.0655
vn 0.4936 0.7896 0.3645
vn -0.4930 0.6941 0.5246
vn 0.1152 0.9353 0.3346
vn -0.4929 0.6941 0.5246
vn 0.5581 0.6183 0.5534
vn -0.0134 -0.1710 0.9852
vn 0.7834 0.1349 0.6068
vn 0.7833 0.1349 0.6068
vn 0.4202 0.0301 0.9069
vn 0.2900 0.3890 0.8744
vn 0.3022 0.7637 0.5704
vn -0.1085 0.0985 0.9892
vn 0.2969 0.4709 0.8307
vn 0.2969 0.4710 0.8307
vn 0.7834 0.1349 0.6067
vn -0.5935 0.0202 0.8046
vn -0.4037 0.3345 0.8516
vn -0.4040 0.3290 0.8535
vn -0.4040 0.3290 0.8536
vn -0.0022 0.5843 0.8115
vn -0.0014 0.6851 0.7285
vn -0.0286 0.4807 0.8764
vn -0.1311 0.4009 0.9067
vn 0.1907 0.4885 0.8515
vn -0.1246 0.3546 0.9267
vn 0.1907 0.4885 0.8514
vn 0.0321 0.6925 0.7207
vn -0.0469 0.5245 0.8501
vn -0.2164 0.5947 0.7743
vn -0.2991 0.5741 0.7622
vn 0.2738 0.7604 0.5889
vn -0.1202 0.3635 0.9238
vn 0.0386 0.5384 0.8418
vn 0.3243 0.6845 0.6529
vn 0.3170 0.4858 0.8146
vn 0.2586 0.2906 0.9212
vn 0.7306 -0.2858 0.6201
vn 0.0288 0.8667 0.4980
vn 0.1678 0.6854 0.7086
vn 0.0311 0.8154 0.5781
vn 0.4706 0.5640 0.6785
vn 0.3470 0.5759 0.7403
vn 0.0015 0.9659 0.2588
vn -0.0920 0.9954 -0.0258
vn 0.4319 0.7387 0.5175
vn 0.4764 0.8576 0.1938
vn -0.1169 0.9499 -0.2899
vn 0.5087 0.8584 -0.0667
vn 0.4716 0.8092 -0.3503
vn 0.3990 0.9147 -0.0635
vn 0.3707 0.8514 -0.3712
vn -0.1808 0.7912 -0.5842
vn 0.4232 0.6829 -0.5955
vn 0.3552 0.4872 -0.7978
vn 0.3044 0.6552 -0.6914
vn 0.1872 0.3746 -0.9081
vn 0.2334 0.4327 -0.8708
vn 0.2507 0.2849 -0.9252
vn -0.6133 0.0275 -0.7894
vn -0.2419 -0.6059 -0.7579
vn -0.3854 -0.3928 -0.8350
vn 0.1689 0.6569 -0.7348
vn -0.3854 -0.3927 -0.8350
vn -0.0336 -0.9960 -0.0826
vn 0.2924 -0.4942 -0.8187
vn -0.3854 -0.3928 -0.8349
vn 0.2925 -0.4942 -0.8187
vn 0.6177 -0.7085 0.3413
vn 0.4091 0.5030 -0.7613
vn 0.7605 -0.4850 -0.4318
vn 0.6177 -0.7085 0.3414
vn 0.2923 -0.4942 -0.8187
vn 0.5715 0.4215 -0.7041
vn 0.6176 -0.7085 0.3414
vn 0.3768 -0.8424 -0.3852
vn -0.4167 -0.8159 -0.4008
vn 0.1997 -0.3971 -0.8958
vn 0.1997 -0.3970 -0.8958
vn 0.2275 -0.9732 -0.0324
vn 0.8027 -0.3264 -0.4992
vn 0.1996 -0.3970 -0.8958
vn 0.8026 -0.3264 -0.4992
vn 0.3557 -0.9344 -0.0170
vn 0.5691 0.6759 -0.4682
vn 0.9576 -0.0848 -0.2752
vn 0.8027 -0.3264 -0.4991
vn 0.3902 -0.9199 0.0392
vn 0.6217 0.7733 -0.1246
vn 0.9669 -0.2478 -0.0608
vn 0.9577 -0.0848 -0.2752
vn 0.9669 -0.2478 -0.0609
vn 0.9739 -0.0577 0.2197
vn 0.9739 -0.0577 0.2196
vn 0.3342 -0.9403 0.0639
vn 0.5681 0.7129 -0.4112
vn 0.9739 -0.0577 0.2195
vn 0.8435 -0.2803 0.4582
vn 0.6142 0.7451 0.2602
vn 0.6142 0.7450 0.2602
vn 0.8435 -0.2803 0.4583
vn 0.6506 -0.3481 0.6750
vn 0.5478 0.5934 0.5897
vn 0.6506 -0.3481 0.6749
vn 0.2554 -0.9582 0.1286
vn 0.4280 -0.4866 0.7616
vn 0.6507 -0.3481 0.6749
vn 0.4281 -0.4866 0.7616
vn 0.0574 -0.9947 0.0853
vn 0.2424 -0.5199 0.8191
vn -0.0894 -0.9960 0.0086
vn -0.3206 -0.4357 0.8411
vn -0.4719 -0.7239 0.5032
vn -0.4719 -0.7239 0.5033
vn -0.3206 -0.4358 0.8410
vn -0.4938 0.0582 0.8676
vn -0.3206 -0.4357 0.8410
vn 0.1697 0.5002 0.8491
vn 0.2326 -0.0675 0.9702
vn 0.1188 -0.3478 0.9300
vn -0.4719 -0.7240 0.5032
vn 0.8181 -0.3194 0.4783
vn 0.3357 0.5065 0.7942
vn 0.9634 0.2345 0.1302
vn 0.6998 0.1015 0.7071
vn 0.8884 -0.4269 -0.1689
vn 0.9097 -0.4150 0.0148
vn 0.8212 -0.4671 -0.3278
vn 0.8536 -0.4577 -0.2489
vn 0.3356 0.7092 0.6200
vn 0.2390 0.6861 0.6871
vn 0.3449 0.8983 0.2722
vn 0.3990 0.9148 -0.0635
vn 0.2979 0.8652 0.4034
vn 0.3218 0.9461 -0.0364
vn 0.5509 0.7059 0.4452
vn 0.2665 0.8682 -0.4185
vn 0.4999 0.6221 -0.6026
vn 0.5976 0.7987 -0.0706
vn 0.5926 0.7736 0.2243
vn 0.3944 0.6400 0.6594
vn 0.3824 0.4568 0.8032
vn -0.1787 -0.6857 0.7056
vn -0.1253 -0.6455 0.7534
vn -0.1992 -0.8151 0.5440
vn -0.2658 -0.7707 0.5791
vn -0.3213 -0.9335 0.1589
vn -0.5039 -0.5499 0.6661
vn -0.4883 -0.7195 0.4938
vn -0.3860 -0.8939 0.2279
vn -0.3471 -0.9375 -0.0265
vn -0.3055 -0.9288 -0.2097
vn -0.3088 -0.9122 -0.2694
vn -0.2802 -0.8693 -0.4072
vn -0.2876 -0.8167 -0.5002
vn -0.2760 -0.7823 -0.5584
vn -0.3208 -0.7395 -0.5918
vn -0.3562 -0.7220 -0.5931
vn 0.0872 0.6963 -0.7125
vn -0.0902 0.5248 -0.8464
vn 0.3299 0.6126 -0.7183
vn 0.4968 0.3731 -0.7835
vn 0.4968 0.3731 -0.7836
vn 0.5647 0.3549 -0.7451
usemtl Tex_0042_0_dds.001
s 1
f 8/1/1 7/2/2 9/3/3
f 9/3/3 7/2/2 10/4/4
f 8/1/1 9/3/3 11/5/5
f 9/3/3 10/4/4 12/6/6
f 12/6/6 10/4/4 13/7/7
f 12/6/6 13/7/7 14/8/8
f 11/5/5 9/3/3 15/9/9
f 9/3/3 16/10/10 15/9/9
f 12/6/6 16/10/10 9/3/3
f 11/5/11 15/9/9 17/11/12
f 15/9/9 18/12/13 17/11/14
f 16/10/10 18/12/13 15/9/9
f 17/11/14 18/12/13 6/13/15
f 18/12/13 16/10/10 19/14/16
f 20/15/17 16/10/10 12/6/6
f 14/8/8 20/15/17 12/6/6
f 19/14/16 16/10/10 20/15/17
f 21/16/18 18/12/13 19/14/16
f 6/13/15 18/12/13 21/16/18
f 21/16/18 22/17/19 6/13/15
f 19/14/16 23/18/20 21/16/18
f 20/15/17 24/19/21 19/14/16
f 24/19/21 23/18/20 19/14/16
f 14/8/8 25/20/22 20/15/17
f 25/20/22 24/19/21 20/15/17
f 14/8/8 26/21/23 25/20/22
f 27/22/24 26/21/23 14/8/8
f 28/23/25 24/19/21 25/20/22
f 27/22/24 29/24/26 26/21/23
f 30/25/27 29/24/28 27/22/24
f 31/26/29 25/20/22 26/21/23
f 28/23/25 25/20/22 31/26/29
f 32/27/30 26/21/23 29/24/28
f 26/21/23 33/28/31 31/26/29
f 32/27/30 33/28/31 26/21/23
f 32/27/30 29/24/26 34/29/32
f 34/29/32 33/28/31 32/27/30
f 35/30/33 29/24/28 30/25/27
f 34/29/32 29/24/26 35/30/33
f 30/25/27 36/31/34 35/30/33
f 35/30/33 37/32/35 34/29/32
f 36/31/34 38/33/36 35/30/33
f 38/33/36 37/32/35 35/30/33
f 39/34/37 36/31/34 30/25/27
f 30/25/27 40/35/38 39/34/37
f 39/34/37 40/35/38 41/36/39
f 39/34/37 41/36/39 43/37/40
f 41/36/39 42/38/41 43/37/42
f 43/37/43 44/39/44 39/34/37
f 44/39/44 36/31/45 39/34/37
f 45/40/46 36/31/47 44/39/44
f 38/33/36 36/31/45 45/40/46
f 46/41/48 44/39/44 43/37/40
f 47/42/49 45/40/46 44/39/44
f 47/42/49 44/39/44 46/41/50
f 48/43/51 45/40/46 47/42/49
f 47/42/49 49/44/52 48/43/51
f 46/41/50 49/44/52 47/42/49
f 45/40/46 48/43/51 50/45/53
f 45/40/46 50/45/54 38/33/36
f 48/43/51 49/44/52 51/46/55
f 50/45/54 48/43/51 51/46/55
f 50/45/54 52/47/56 38/33/57
f 50/45/53 51/46/55 53/48/58
f 53/48/58 51/46/55 49/44/52
f 50/45/54 54/49/59 52/47/56
f 53/48/58 54/49/60 50/45/61
f 49/44/52 55/50/62 53/48/58
f 55/50/62 49/44/52 46/41/50
f 46/41/50 56/51/63 55/50/62
f 53/48/58 55/50/62 56/51/64
f 43/37/40 56/51/64 46/41/50
f 43/37/40 42/38/41 56/51/65
f 56/51/64 42/38/41 57/52/66
f 57/52/66 58/53/67 56/51/64
f 58/53/67 59/54/68 56/51/64
f 56/51/64 59/54/68 53/48/58
f 59/54/68 60/55/69 53/48/58
f 53/48/58 60/55/69 54/49/60
f 60/55/69 61/56/70 54/49/60
f 62/57/71 61/56/70 60/55/69
f 61/56/72 62/57/71 63/58/73
f 61/56/72 63/58/73 64/59/74
f 63/58/73 65/60/75 64/59/74
f 61/56/70 64/59/74 54/49/60
f 54/49/60 64/59/74 52/47/56
f 64/59/74 66/61/76 52/47/56
f 52/47/56 66/61/76 38/33/36
f 38/33/36 66/61/76 37/32/35
f 66/61/76 67/62/77 37/32/35
f 68/63/78 66/61/76 64/59/74
f 67/62/77 66/61/76 68/63/78
f 67/62/77 34/29/32 37/32/35
f 69/64/79 68/63/78 64/59/74
f 64/59/74 65/60/75 69/64/79
f 69/64/79 70/65/80 68/63/78
f 70/65/80 67/62/77 68/63/78
f 65/60/75 71/66/81 69/64/79
f 69/64/79 71/66/81 70/65/80
f 72/67/82 71/66/81 65/60/75
f 73/68/83 71/66/81 72/67/82
f 74/69/84 34/29/32 67/62/77
f 74/69/84 33/28/31 34/29/32
f 70/65/80 75/70/85 67/62/77
f 75/70/85 74/69/84 67/62/77
f 76/71/86 33/28/31 74/69/84
f 76/71/86 74/69/84 75/70/85
f 77/72/87 75/70/85 70/65/80
f 70/65/80 71/66/81 77/72/87
f 78/73/88 76/71/86 75/70/85
f 78/73/88 75/70/85 77/72/87
f 79/74/89 33/28/31 76/71/86
f 33/28/31 79/74/89 31/26/29
f 31/26/29 79/74/89 80/75/90
f 80/75/90 28/23/25 31/26/29
f 81/76/91 79/74/89 76/71/86
f 81/76/91 76/71/86 78/73/88
f 82/77/92 79/74/89 81/76/91
f 82/77/92 80/75/90 79/74/89
f 83/78/93 28/23/25 80/75/90
f 84/79/94 80/75/90 82/77/92
f 84/79/94 83/78/93 80/75/90
f 85/80/95 83/78/93 84/79/94
f 82/77/92 86/81/96 84/79/94
f 84/79/94 87/82/97 85/80/95
f 86/81/96 87/82/97 84/79/94
f 85/80/95 88/83/98 83/78/93
f 83/78/93 88/83/98 28/23/25
f 28/23/25 88/83/98 24/19/21
f 24/19/21 88/83/98 23/18/20
f 89/84/99 88/83/98 85/80/95
f 85/80/95 87/82/97 89/84/99
f 89/84/99 90/85/100 88/83/98
f 88/83/98 90/85/100 23/18/20
f 91/86/101 90/85/100 89/84/99
f 89/84/99 87/82/97 91/86/101
f 92/87/102 23/18/20 90/85/100
f 92/87/102 90/85/100 91/86/101
f 21/16/18 23/18/20 92/87/102
f 92/87/102 91/86/101 93/88/103
f 21/16/18 92/87/102 94/89/104
f 93/88/103 95/90/105 92/87/102
f 92/87/102 95/90/105 94/89/104
f 5/91/106 94/89/104 95/90/105
f 5/91/106 95/90/105 96/92/107
f 96/92/107 95/90/105 93/88/103
f 91/86/101 97/93/108 93/88/103
f 96/92/109 98/94/110 5/91/106
f 99/95/111 98/94/110 96/92/112
f 99/95/113 100/96/114 98/94/110
f 96/92/107 93/88/103 101/97/115
f 101/97/115 99/95/111 96/92/107
f 101/97/115 93/88/103 97/93/108
f 102/98/116 100/96/117 99/95/111
f 101/97/115 102/98/116 99/95/118
f 103/99/119 100/96/120 102/98/116
f 103/99/119 102/98/116 101/97/115
f 104/100/121 100/96/117 103/99/119
f 103/99/119 105/101/122 104/100/121
f 106/102/123 105/101/122 103/99/119
f 106/102/124 107/103/125 105/101/122
f 108/104/126 107/103/125 106/102/127
f 108/104/128 109/105/129 107/103/125
f 110/106/130 106/102/124 103/99/119
f 108/104/126 106/102/124 110/106/130
f 111/107/131 109/105/129 108/104/128
f 108/104/132 110/106/130 111/107/131
f 111/107/131 112/108/133 109/105/129
f 111/107/131 110/106/130 113/109/134
f 114/110/135 112/108/133 111/107/136
f 114/110/137 111/107/131 113/109/134
f 115/111/138 112/108/133 114/110/137
f 113/109/134 115/111/139 114/110/137
f 115/111/139 116/112/140 112/108/133
f 117/113/141 113/109/134 110/106/130
f 103/99/119 117/113/141 110/106/130
f 115/111/142 118/114/143 116/112/140
f 119/115/144 115/111/139 113/109/134
f 119/115/145 118/114/146 115/111/139
f 120/116/147 116/112/140 118/114/143
f 121/117/148 118/114/143 119/115/144
f 120/116/149 118/114/143 121/117/148
f 122/118/150 116/112/140 120/116/149
f 123/119/151 122/118/150 120/116/152
f 120/116/149 121/117/148 123/119/153
f 124/120/154 122/118/150 123/119/151
f 125/121/155 124/120/154 123/119/153
f 126/122/156 124/120/154 125/121/155
f 127/123/157 126/122/156 125/121/155
f 4/124/158 126/122/156 127/123/157
f 4/124/159 127/123/160 128/125/161
f 128/125/161 127/123/162 129/126/163
f 125/121/155 129/126/163 127/123/162
f 130/127/164 4/124/158 128/125/161
f 129/126/163 130/127/164 128/125/161
f 3/128/165 4/124/166 130/127/164
f 2/129/167 3/128/165 130/127/164
f 2/129/167 130/127/164 77/72/87
f 130/127/164 131/130/168 77/72/87
f 131/130/168 130/127/164 129/126/163
f 77/72/87 132/131/169 2/129/167
f 71/66/81 132/131/169 77/72/87
f 77/72/87 131/130/168 78/73/88
f 133/132/170 132/131/169 71/66/81
f 73/68/83 133/132/170 71/66/81
f 133/132/170 73/68/83 134/133/171
f 134/133/171 132/131/169 133/132/170
f 2/129/167 132/131/169 134/133/171
f 134/133/171 73/68/83 135/134/172
f 1/135/173 2/129/167 134/133/171
f 134/133/171 135/134/172 136/136/174
f 136/136/174 1/135/173 134/133/171
f 131/130/168 137/137/175 78/73/88
f 78/73/88 137/137/175 81/76/91
f 131/130/168 138/138/176 137/137/175
f 129/126/163 138/138/176 131/130/168
f 137/137/175 139/139/177 81/76/91
f 81/76/91 139/139/177 82/77/92
f 139/139/177 86/81/178 82/77/92
f 137/137/175 140/140/179 139/139/177
f 138/138/176 140/140/179 137/137/175
f 140/140/179 141/141/180 139/139/177
f 139/139/177 141/141/180 86/81/96
f 138/138/176 142/142/181 140/140/179
f 141/141/180 143/143/182 86/81/96
f 86/81/96 143/143/182 87/82/97
f 87/82/97 143/143/182 91/86/101
f 91/86/101 143/143/182 97/93/108
f 97/93/108 143/143/182 144/144/183
f 144/144/183 101/97/115 97/93/108
f 101/97/115 144/144/183 103/99/119
f 144/144/183 117/113/141 103/99/119
f 144/144/183 143/143/182 117/113/141
f 141/141/180 117/113/141 143/143/182
f 145/145/184 117/113/141 141/141/180
f 145/145/184 113/109/134 117/113/141
f 113/109/134 145/145/184 119/115/144
f 119/115/144 145/145/184 146/146/185
f 141/141/180 146/146/185 145/145/184
f 146/146/185 121/117/148 119/115/144
f 140/140/179 146/146/185 141/141/180
f 140/140/179 142/142/181 146/146/185
f 142/142/181 121/117/148 146/146/185
f 147/147/186 121/117/148 142/142/181
f 147/147/186 142/142/181 138/138/176
f 129/126/163 147/147/186 138/138/176
f 148/148/187 121/117/148 147/147/186
f 148/148/187 147/147/186 129/126/163
f 148/148/187 129/126/163 125/121/155
f 125/121/155 123/119/151 148/148/187
f 123/119/151 121/117/148 148/148/187
f 98/149/188 100/150/189 149/151/190
f 100/150/189 104/152/191 149/151/190
f 104/152/191 150/153/192 149/151/190
f 104/152/191 105/154/193 107/155/194
f 107/155/194 109/156/195 104/152/191
f 104/152/191 109/156/195 150/153/192
f 112/157/196 150/153/192 109/156/195
f 112/157/196 151/158/197 150/153/192
f 112/157/196 116/159/198 151/158/197
f 122/160/199 151/158/197 116/159/198
f 152/161/200 151/158/197 122/160/199
f 122/160/199 124/162/201 152/161/200
f 126/163/202 152/161/200 124/162/201
f 4/164/203 152/161/200 126/163/202
f 21/16/18 153/165/204 22/17/19
f 22/17/19 153/165/204 154/166/205
f 21/16/18 155/167/206 153/165/204
f 153/165/204 156/168/207 154/166/205
f 155/167/206 156/168/208 153/165/204
f 94/89/104 155/167/206 21/16/18
f 155/167/206 157/169/209 156/168/208
f 94/89/104 157/169/209 155/167/206
