# Blender v3.0.1 OBJ File: ''
# www.blender.org
mtllib scrotumneck.mtl
o Scrotus_With_Blade.017
v 0.082400 98.568703 -10.949984
v -0.103800 98.596199 -10.971384
v -4.562500 82.821098 5.700913
v -5.557400 82.857697 4.525913
v -4.519800 82.607498 5.649014
v -5.600100 83.013397 4.550313
v -6.195300 82.857697 3.372313
v -4.525900 83.773300 4.123114
v -3.756800 83.642097 4.992814
v -3.842300 84.646103 5.319414
v -4.702900 84.841499 4.275614
v -5.148500 83.742798 3.137314
v -6.253200 82.979797 3.357014
v -6.433300 82.534302 1.907413
v -6.091500 83.104897 3.289914
v -6.488200 82.671600 1.858613
v -6.317300 82.122299 0.900313
v -6.357000 82.250397 0.811813
v -6.119000 81.734703 0.094613
v -6.332600 82.753998 1.782313
v -6.176900 81.969704 -0.271587
v -6.109800 81.508797 -0.387587
v -6.115900 82.522003 0.222813
v -6.125100 81.646202 -0.488287
v -5.780200 80.931999 -1.373287
v -5.731400 80.800797 -1.254287
v -3.579800 81.658401 -1.455687
v -4.290900 82.494598 -0.762987
v -3.173900 81.603401 -1.147487
v -2.417100 81.017502 -1.943987
v -2.331600 81.005302 -1.770087
v -1.294000 80.626900 -2.090487
v -2.169900 81.872002 -2.346887
v -1.208500 81.457001 -2.624587
v -1.306200 80.648201 -2.294987
v 0.003100 80.443703 -2.185087
v 0.003100 80.428497 -2.349887
v 1.315300 80.648201 -2.294987
v 1.303100 80.626900 -2.090487
v 0.003100 81.215897 -2.813787
v 1.217700 81.457001 -2.624587
v 2.426200 81.017502 -1.943987
v 2.343800 81.005302 -1.770087
v 3.186100 81.603401 -1.147487
v 3.592000 81.658401 -1.455687
v 5.740500 80.800797 -1.254287
v 2.179000 81.872002 -2.346887
v 5.789400 80.931999 -1.373287
v 1.953200 82.940201 -3.064086
v 3.302100 82.473198 -2.026387
v 3.988800 83.997231 -1.495386
v 1.019300 82.393898 -3.497387
v 1.394700 82.894402 -3.274586
v 0.863700 82.558701 -3.524887
v 2.035600 83.370499 -2.969386
v -0.045800 82.167999 -3.683587
v -0.036600 82.360298 -3.723287
v -0.927800 82.564796 -3.564587
v -1.117000 82.433502 -3.424187
v -1.513700 82.946297 -3.268486
v -1.944000 82.940201 -3.064086
v -2.066100 83.388802 -2.963286
v -2.743600 83.599297 -2.682586
v -2.533000 83.831299 -2.682586
v -3.289900 82.473198 -2.026387
v -3.980331 84.048286 -1.401995
v -3.161700 84.377602 -2.401786
v -2.887100 84.557602 -2.444486
v -5.429200 84.817001 2.752814
v -5.957200 84.337898 2.816914
v -5.384258 84.982018 1.931941
v -6.289900 83.837402 2.954214
v -6.125100 84.197502 2.209514
v -6.436400 83.758003 2.371314
v -6.180000 83.980797 1.629714
v -6.460800 83.547501 1.767014
v -5.432300 83.236198 1.309214
v -5.548300 84.224998 1.339814
v -5.227800 82.979797 0.634814
v -5.194300 83.068298 0.180114
v -4.962300 83.861801 1.290914
v -4.614036 84.037766 -0.099161
v -4.290900 83.996101 -0.753786
v -4.544200 84.478302 1.104814
v -4.895200 84.878098 1.352014
v 2.545200 83.803802 -2.749686
v 2.752800 83.599297 -2.682586
v 2.984700 84.475197 -2.539086
v 3.256300 84.414200 -2.441486
v 4.712100 84.841499 4.275614
v 3.851400 84.646103 5.319414
v 4.535100 83.773300 4.123114
v 3.766000 83.642097 4.992814
v 4.571700 82.821098 5.700913
v 4.528900 82.607498 5.649014
v 5.566600 82.857697 4.525913
v 5.609300 83.013397 4.550313
v 6.207500 82.857697 3.372313
v 6.265500 82.979797 3.357014
v 6.442500 82.534302 1.907413
v 5.157600 83.742798 3.137314
v 6.100700 83.104897 3.289914
v 5.441500 84.817001 2.752814
v 5.581800 84.606499 1.913514
v 4.904300 84.599098 1.352014
v 4.553400 84.478302 1.104814
v 5.557400 84.224998 1.339814
v 4.971500 83.861801 1.290914
v 4.638800 84.108643 -0.122086
v 4.303100 83.996101 -0.753786
v 4.300100 82.494598 -0.762987
v 6.119000 81.508797 -0.387587
v 6.134200 81.646202 -0.488287
v 6.186100 81.969704 -0.271587
v 6.128100 81.734703 0.094613
v 5.203400 83.068298 0.180114
v 6.128100 82.522003 0.222813
v 5.237000 82.979797 0.634814
v 6.366200 82.250397 0.811813
v 6.326500 82.122299 0.900313
v 6.497400 82.671600 1.858613
v 6.341700 82.753998 1.782313
v 5.444500 83.236198 1.309214
v 6.469900 83.547501 1.767014
v 6.189200 83.980797 1.629714
v 6.448600 83.758003 2.371314
v 6.299000 83.837402 2.954214
v 6.137300 84.197502 2.209514
v 5.966400 84.337898 2.816914
v 2.020300 83.977798 6.820914
v 2.981700 84.142601 6.259314
v 0.619500 84.008301 6.958214
v -2.008100 83.977798 6.820914
v -2.972500 84.142601 6.259314
v -2.902300 83.129402 5.893113
v -2.072200 83.614601 6.976514
v -0.610400 84.008301 6.958214
v 0.003100 83.263603 7.593013
v -1.117000 83.297203 7.409914
v -1.590000 82.485397 6.836214
v -2.191200 82.668503 6.506613
v -0.973500 82.143600 7.815814
v -1.516800 81.786598 7.229814
v 0.003100 82.378601 8.136213
v 0.003100 81.399002 7.034513
v 0.985700 82.143600 7.815814
v 1.126100 83.297203 7.409914
v -1.513700 81.478302 6.979613
v -2.856500 81.612602 6.851413
v -2.942000 81.771301 6.991813
v -3.900300 81.621803 6.747613
v -3.927700 81.783501 6.900213
v -4.159700 82.302299 6.115913
v -4.165800 82.445801 6.280714
v 2.081400 83.614601 6.976514
v 1.602200 82.485397 6.836214
v 2.911500 83.129402 5.893113
v 2.200400 82.668503 6.506613
v 4.174900 82.445801 6.280714
v 2.951100 81.771301 6.991813
v 4.168800 82.302299 6.115913
v 3.936900 81.783501 6.900213
v 3.909400 81.621803 6.747613
v 2.868700 81.612602 6.851413
v 1.525900 81.786598 7.229814
v 1.522900 81.478302 6.979613
vt 0.994100 0.092800
vt 0.940300 0.081300
vt 0.993600 0.081700
vt 0.940900 0.088100
vt 0.897900 0.082800
vt 0.951500 0.153400
vt 0.991000 0.166100
vt 0.989400 0.218700
vt 0.947300 0.204800
vt 0.916300 0.144200
vt 0.897700 0.088400
vt 0.850300 0.075100
vt 0.898500 0.097900
vt 0.849500 0.080900
vt 0.817500 0.060200
vt 0.815500 0.065200
vt 0.792100 0.045300
vt 0.847000 0.087700
vt 0.783400 0.054100
vt 0.777300 0.040900
vt 0.797700 0.073800
vt 0.775600 0.045500
vt 0.751400 0.018000
vt 0.750100 0.010600
vt 0.705600 0.056800
vt 0.740500 0.093100
vt 0.706000 0.048700
vt 0.659400 0.015700
vt 0.662400 0.009700
vt 0.580200 0.005000
vt 0.639000 0.049800
vt 0.565200 0.039100
vt 0.578700 0.011800
vt 0.502200 0.004000
vt 0.502800 0.009100
vt 0.422800 0.011100
vt 0.421300 0.006000
vt 0.500900 0.036200
vt 0.440300 0.041100
vt 0.348600 0.020100
vt 0.346100 0.014800
vt 0.286500 0.042800
vt 0.285200 0.049900
vt 0.251900 0.006500
vt 0.367600 0.048700
vt 0.251400 0.013900
vt 0.399000 0.085800
vt 0.317200 0.087000
vt 0.266600 0.123500
vt 0.456500 0.070100
vt 0.423100 0.087000
vt 0.463500 0.079200
vt 0.397500 0.099800
vt 0.499800 0.065000
vt 0.499500 0.073300
vt 0.538000 0.078200
vt 0.546700 0.069500
vt 0.577600 0.089200
vt 0.602900 0.087400
vt 0.602300 0.101300
vt 0.632300 0.112000
vt 0.623100 0.117200
vt 0.674800 0.085500
vt 0.714200 0.117300
vt 0.665700 0.149600
vt 0.655600 0.154800
vt 0.891100 0.182900
vt 0.886900 0.149400
vt 0.859500 0.173500
vt 0.886600 0.125500
vt 0.868700 0.143200
vt 0.870900 0.122700
vt 0.852700 0.134800
vt 0.855100 0.117100
vt 0.824600 0.119500
vt 0.838900 0.156100
vt 0.802400 0.115000
vt 0.787300 0.113500
vt 0.817900 0.155500
vt 0.773600 0.143200
vt 0.753600 0.163700
vt 0.812600 0.185000
vt 0.831200 0.198900
vt 0.372100 0.119200
vt 0.360400 0.115500
vt 0.342800 0.154000
vt 0.329700 0.150600
vt 0.052900 0.200700
vt 0.012000 0.221000
vt 0.049900 0.142100
vt 0.016100 0.155300
vt 0.014800 0.084500
vt 0.014600 0.071800
vt 0.059200 0.070900
vt 0.058900 0.077700
vt 0.096500 0.074100
vt 0.096800 0.079800
vt 0.141500 0.074700
vt 0.081000 0.134800
vt 0.096400 0.089300
vt 0.104300 0.178000
vt 0.153900 0.155000
vt 0.162200 0.199100
vt 0.134100 0.171000
vt 0.174400 0.155900
vt 0.180300 0.185600
vt 0.219500 0.144400
vt 0.240300 0.164300
vt 0.242500 0.091400
vt 0.214900 0.038400
vt 0.216800 0.043000
vt 0.208200 0.053800
vt 0.198800 0.046100
vt 0.204700 0.115100
vt 0.193400 0.075700
vt 0.189400 0.116500
vt 0.175200 0.067700
vt 0.173200 0.062900
vt 0.142400 0.080300
vt 0.144800 0.087000
vt 0.167300 0.119900
vt 0.137400 0.114500
vt 0.140100 0.132400
vt 0.122400 0.118100
vt 0.107800 0.118900
vt 0.124900 0.139000
vt 0.107900 0.143300
vt 0.615300 0.842200
vt 0.622900 0.893300
vt 0.590200 0.880000
vt 0.599000 0.607900
vt 0.632500 0.596800
vt 0.621500 0.647300
vt 0.655400 0.635700
vt 0.675200 0.582000
vt 0.630900 0.681100
vt 0.642900 0.680400
vt 0.626600 0.725000
vt 0.655500 0.746100
vt 0.625400 0.765300
vt 0.655100 0.711700
vt 0.680300 0.688000
vt 0.673500 0.666000
vt 0.688800 0.720900
vt 0.703500 0.697900
vt 0.681600 0.746900
vt 0.723700 0.748200
vt 0.687100 0.773300
vt 0.653000 0.780400
vt 0.717100 0.697800
vt 0.719100 0.652800
vt 0.712200 0.649800
vt 0.720500 0.618000
vt 0.714100 0.620100
vt 0.696700 0.596400
vt 0.692300 0.602100
vt 0.682200 0.579600
vt 0.638900 0.810700
vt 0.627100 0.809300
vt 0.676600 0.805600
vt 0.648300 0.856000
vt 0.664500 0.910900
vt 0.668300 0.827000
vt 0.682900 0.892000
vt 0.705900 0.845700
vt 0.671300 0.913700
vt 0.686900 0.898000
vt 0.705900 0.875500
vt 0.712100 0.878000
vt 0.713000 0.843200
vt 0.700300 0.797200
vt 0.713900 0.798100
vn -0.6932 0.2758 0.6659
vn -0.7838 -0.3003 0.5436
vn -0.7336 -0.2954 0.6120
vn -0.7636 0.3317 0.5540
vn -0.8604 -0.3626 0.3581
vn -0.7401 0.3442 0.5777
vn -0.6861 0.3174 0.6546
vn -0.7473 0.1133 0.6547
vn -0.8070 0.2994 0.5090
vn -0.6095 0.4163 0.6747
vn -0.9165 0.2915 0.2741
vn -0.7636 0.3317 0.5539
vn -0.9347 -0.3319 0.1269
vn -0.6666 0.6581 0.3502
vn -0.6095 0.4163 0.6746
vn -0.9442 0.3217 -0.0701
vn -0.9475 -0.3182 -0.0300
vn -0.9676 0.2087 -0.1424
vn -0.9595 -0.2802 -0.0279
vn -0.7550 0.5336 -0.3810
vn -0.8292 0.2690 -0.4900
vn -0.9768 -0.1997 -0.0770
vn -0.6773 0.6872 -0.2627
vn -0.8572 0.1937 -0.4772
vn -0.5555 -0.1853 -0.8106
vn -0.5555 -0.1854 -0.8106
vn -0.4563 -0.6982 -0.5516
vn -0.3405 -0.5619 -0.7538
vn -0.4563 -0.6982 -0.5517
vn -0.6467 0.2601 -0.7170
vn -0.6460 0.2597 -0.7178
vn -0.3405 -0.5619 -0.7539
vn -0.2103 -0.9741 0.0828
vn -0.5148 -0.7377 -0.4368
vn -0.3996 -0.9070 0.1326
vn -0.2471 -0.9658 -0.0780
vn -0.4533 -0.3800 -0.8063
vn -0.3344 -0.4581 -0.8236
vn -0.2983 -0.7611 -0.5760
vn -0.0002 -0.9972 0.0747
vn -0.0002 -0.8956 -0.4448
vn 0.2981 -0.7611 -0.5761
vn 0.2469 -0.9659 -0.0783
vn 0.0047 -0.5611 -0.8278
vn 0.3429 -0.4393 -0.8303
vn 0.0047 -0.5611 -0.8277
vn 0.5144 -0.7366 -0.4392
vn 0.4026 -0.9065 0.1271
vn 0.2101 -0.9742 0.0819
vn 0.3404 -0.5614 -0.7543
vn 0.5144 -0.7365 -0.4392
vn 0.3405 -0.5614 -0.7543
vn 0.4563 -0.6982 -0.5517
vn 0.4335 -0.3715 -0.8210
vn 0.5143 -0.7366 -0.4392
vn 0.5555 -0.1855 -0.8106
vn 0.4563 -0.6981 -0.5517
vn 0.3405 -0.5614 -0.7542
vn 0.4485 -0.1394 -0.8829
vn 0.5969 -0.2628 -0.7580
vn 0.4485 -0.1394 -0.8828
vn 0.8458 0.0559 -0.5306
vn 0.4321 -0.5241 -0.7339
vn 0.6717 -0.2278 -0.7050
vn 0.3791 -0.2740 -0.8838
vn 0.3791 -0.2740 -0.8839
vn 0.3370 0.1572 -0.9283
vn 0.2421 0.0509 -0.9689
vn 0.3340 0.1316 -0.9333
vn -0.0088 -0.4619 -0.8869
vn -0.0088 -0.4620 -0.8869
vn 0.0256 -0.2032 -0.9788
vn -0.3785 -0.3420 -0.8601
vn -0.0088 -0.4620 -0.8868
vn -0.4435 -0.3854 -0.8092
vn -0.4396 -0.0398 -0.8973
vn -0.4870 -0.1502 -0.8604
vn -0.3592 0.1287 -0.9244
vn -0.4858 0.0201 -0.8738
vn -0.2666 0.2354 -0.9346
vn -0.3592 0.1287 -0.9243
vn -0.5966 -0.2635 -0.7580
vn -0.3405 -0.5620 -0.7538
vn -0.8184 -0.0133 -0.5745
vn -0.5888 0.0792 -0.8044
vn -0.2764 0.1985 -0.9403
vn -0.7396 0.5896 0.3247
vn -0.6096 0.4163 0.6746
vn -0.5528 0.6280 0.5478
vn -0.6823 0.6844 -0.2571
vn -0.5528 0.6279 0.5478
vn -0.7282 0.3244 0.6037
vn -0.6095 0.4164 0.6746
vn -0.6665 0.6581 0.3502
vn -0.7336 0.6771 -0.0585
vn -0.5528 0.6280 0.5477
vn -0.9690 0.2280 0.0957
vn -0.9689 0.2280 0.0957
vn -0.6768 0.4091 -0.6120
vn -0.8811 0.0748 -0.4670
vn -0.7550 0.5336 -0.3811
vn -0.7551 0.5336 -0.3810
vn -0.7603 0.2353 -0.6055
vn -0.7602 0.2353 -0.6055
vn -0.7602 0.2353 -0.6056
vn -0.4131 0.3930 -0.8215
vn -0.7619 0.6245 -0.1717
vn -0.4131 0.3931 -0.8215
vn -0.9676 0.2087 -0.1423
vn -0.6572 0.6324 -0.4101
vn -0.3780 0.4752 -0.7945
vn -0.8359 0.3389 -0.4317
vn -0.8360 0.3389 -0.4317
vn -0.8662 0.2548 -0.4298
vn -0.7637 0.2009 -0.6135
vn -0.6583 -0.0451 -0.7514
vn 0.3570 0.0562 -0.9324
vn 0.5059 -0.0674 -0.8600
vn 0.3539 0.0793 -0.9319
vn 0.6438 -0.0069 -0.7652
vn 0.8265 0.0022 -0.5630
vn 0.5692 -0.1596 -0.8066
vn 0.6863 -0.0795 -0.7229
vn 0.6495 -0.2438 -0.7202
vn 0.5368 -0.0795 -0.8400
vn 0.8161 0.0839 -0.5718
vn 0.8070 0.2987 0.5094
vn 0.7475 0.1123 0.6547
vn 0.7391 0.3442 0.5790
vn 0.7401 0.3442 0.5777
vn 0.6861 0.3174 0.6546
vn 0.6932 0.2758 0.6659
vn 0.7336 -0.2957 0.6119
vn 0.7833 -0.3003 0.5444
vn 0.7631 0.3319 0.5545
vn 0.8603 -0.3626 0.3583
vn 0.9157 0.2949 0.2730
vn 0.9347 -0.3323 0.1260
vn 0.6097 0.4158 0.6748
vn 0.6639 0.6609 0.3499
vn 0.7398 0.5892 0.3248
vn 0.2445 0.4430 -0.8625
vn 0.6237 0.0799 -0.7776
vn 0.4671 0.8204 -0.3297
vn 0.3346 0.4725 -0.8153
vn 0.3635 0.4963 -0.7884
vn 0.6525 0.1205 -0.7481
vn 0.6850 -0.0272 -0.7280
vn 0.4051 0.5042 -0.7627
vn 0.8135 0.1024 -0.5725
vn 0.7756 0.3843 -0.5007
vn 0.4089 0.6798 -0.6088
vn 0.8432 0.4564 -0.2843
vn 0.9142 0.2527 -0.3170
vn 0.6898 0.3809 -0.6157
vn 0.8293 0.0840 -0.5525
vn 0.7510 0.2923 -0.5921
vn 0.6427 0.2504 -0.7241
vn 0.8161 0.2429 -0.5244
vn 0.6799 0.3793 -0.6276
vn 0.3220 -0.5080 -0.7989
vn 0.8020 0.0499 -0.5952
vn 0.6464 0.2592 -0.7176
vn 0.9768 -0.1997 -0.0770
vn 0.8572 0.1937 -0.4772
vn 0.5555 -0.1855 -0.8105
vn 0.8290 0.2685 -0.4905
vn 0.8291 0.2685 -0.4905
vn 0.9595 -0.2802 -0.0279
vn 0.7940 0.4866 -0.3644
vn 0.6915 0.1647 -0.7033
vn 0.8955 0.1655 -0.4131
vn 0.6576 0.6320 -0.4100
vn 0.9283 0.1751 -0.3279
vn 0.5373 0.5477 -0.6414
vn 0.8356 0.4902 -0.2477
vn 0.6787 0.6859 -0.2625
vn 0.3785 0.4753 -0.7942
vn 0.7615 0.6248 -0.1724
vn 0.4127 0.3926 -0.8219
vn 0.9678 0.2081 -0.1417
vn 0.9475 -0.3182 -0.0300
vn 0.9442 0.3218 -0.0707
vn 0.7555 0.5329 -0.3810
vn 0.7587 0.2363 -0.6071
vn 0.7615 0.6248 -0.1725
vn 0.8801 0.0745 -0.4689
vn 0.6763 0.4083 -0.6131
vn 0.6816 0.6847 -0.2580
vn 0.9691 0.2272 0.0959
vn 0.7264 0.3251 0.6055
vn 0.7338 0.6769 -0.0584
vn 0.5523 0.6272 0.5492
vn 0.6737 0.0762 0.7351
vn 0.6448 0.2185 0.7325
vn 0.6679 0.2402 0.7045
vn -0.6682 0.2402 0.7041
vn -0.6448 0.2185 0.7325
vn -0.6735 0.0762 0.7353
vn -0.5540 0.2432 0.7962
vn -0.5733 0.4515 0.6837
vn -0.3455 0.0186 0.9382
vn -0.4699 0.0785 0.8792
vn 0.0662 0.3393 0.9384
vn 0.0000 0.6487 0.7610
vn -0.0662 0.3392 0.9384
vn 0.0662 0.3393 0.9383
vn -0.3548 0.3168 0.8796
vn -0.0004 0.4761 0.8794
vn -0.5853 0.1078 0.8036
vn -0.4689 0.1955 0.8613
vn -0.4306 -0.2483 0.8677
vn -0.3565 -0.2773 0.8922
vn -0.0008 -0.0534 0.9986
vn -0.0002 -0.7495 0.6621
vn 0.4307 -0.2481 0.8677
vn 0.3542 0.3177 0.8795
vn 0.3542 0.3177 0.8796
vn -0.0979 -0.6279 0.7721
vn -0.0002 -0.7494 0.6621
vn -0.1009 -0.6829 0.7235
vn -0.1505 -0.0547 0.9871
vn -0.6054 -0.5976 0.5257
vn -0.5623 -0.0596 0.8248
vn -0.1504 -0.0547 0.9871
vn -0.9041 -0.3411 0.2573
vn -0.6737 0.3187 0.6667
vn -0.8630 -0.2994 0.4069
vn -0.6738 0.3187 0.6667
vn 0.4699 0.0781 0.8793
vn 0.3472 0.0190 0.9376
vn 0.3543 0.3177 0.8795
vn 0.5858 0.1075 0.8033
vn 0.5540 0.2432 0.7962
vn 0.5733 0.4515 0.6837
vn 0.4696 0.1954 0.8610
vn 0.6737 0.3187 0.6667
vn 0.1507 -0.0541 0.9871
vn 0.6738 0.3187 0.6667
vn 0.8630 -0.2994 0.4069
vn 0.9041 -0.3411 0.2573
vn 0.5623 -0.0596 0.8248
vn 0.6055 -0.5975 0.5257
vn 0.1010 -0.6820 0.7243
vn 0.3570 -0.2790 0.8915
vn 0.3570 -0.2790 0.8914
vn 0.0977 -0.6279 0.7722
usemtl Tex_0236_0_dds.002
s 1
f 3/1/1 4/2/2 5/3/3
f 6/4/4 4/2/2 3/1/1
f 6/4/4 7/5/5 4/2/2
f 3/1/1 8/6/6 6/4/4
f 9/7/7 8/6/6 3/1/1
f 10/8/8 8/6/6 9/7/7
f 11/9/9 8/6/6 10/8/8
f 11/9/9 12/10/10 8/6/6
f 8/6/6 12/10/10 6/4/4
f 13/11/11 7/5/5 6/4/12
f 13/11/11 14/12/13 7/5/5
f 6/4/4 15/13/14 13/11/11
f 6/4/4 12/10/15 15/13/14
f 16/14/16 14/12/13 13/11/11
f 13/11/11 15/13/14 16/14/16
f 16/14/16 17/15/17 14/12/13
f 18/16/18 17/15/17 16/14/16
f 18/16/18 19/17/19 17/15/17
f 16/14/16 15/13/14 20/18/20
f 16/14/16 20/18/20 18/16/18
f 21/19/21 19/17/19 18/16/18
f 21/19/21 22/20/22 19/17/19
f 18/16/18 23/21/23 21/19/21
f 24/22/24 22/20/22 21/19/21
f 24/22/24 25/23/25 22/20/22
f 22/20/22 25/23/26 26/24/27
f 25/23/26 27/25/28 26/24/29
f 24/22/24 28/26/30 25/23/26
f 28/26/31 24/22/24 21/19/21
f 25/23/26 28/26/31 27/25/28
f 26/24/29 27/25/32 29/27/33
f 27/25/28 30/28/34 29/27/33
f 29/27/33 30/28/34 31/29/35
f 30/28/34 32/30/36 31/29/35
f 27/25/28 33/31/37 30/28/34
f 33/31/37 34/32/38 30/28/34
f 30/28/34 34/32/38 35/33/39
f 35/33/39 32/30/36 30/28/34
f 32/30/36 35/33/39 36/34/40
f 36/34/40 35/33/39 37/35/41
f 38/36/42 36/34/40 37/35/41
f 39/37/43 36/34/40 38/36/42
f 35/33/39 40/38/44 37/35/41
f 40/38/44 38/36/42 37/35/41
f 34/32/38 40/38/44 35/33/39
f 41/39/45 38/36/42 40/38/46
f 38/36/42 41/39/45 42/40/47
f 42/40/47 39/37/43 38/36/42
f 43/41/48 39/37/43 42/40/47
f 42/40/47 44/42/49 43/41/48
f 45/43/50 44/42/49 42/40/51
f 45/43/52 46/44/53 44/42/49
f 42/40/47 41/39/45 47/45/54
f 47/45/54 45/43/52 42/40/55
f 48/46/56 46/44/57 45/43/58
f 41/39/45 49/47/59 47/45/54
f 50/48/60 45/43/52 47/45/54
f 47/45/54 49/47/61 50/48/60
f 51/49/62 45/43/63 50/48/64
f 52/50/65 49/47/59 41/39/45
f 40/38/46 52/50/66 41/39/45
f 49/47/59 52/50/66 53/51/67
f 53/51/67 52/50/66 54/52/68
f 55/53/69 49/47/59 53/51/67
f 56/54/70 54/52/68 52/50/65
f 56/54/71 52/50/65 40/38/44
f 57/55/72 54/52/68 56/54/71
f 57/55/72 56/54/71 58/56/73
f 40/38/46 34/32/38 56/54/74
f 58/56/73 56/54/70 59/57/75
f 56/54/71 34/32/38 59/57/75
f 34/32/38 33/31/37 59/57/75
f 58/56/73 59/57/75 60/58/76
f 60/58/76 59/57/75 61/59/77
f 59/57/75 33/31/37 61/59/77
f 62/60/78 60/58/76 61/59/77
f 63/61/79 62/60/78 61/59/77
f 64/62/80 62/60/81 63/61/79
f 33/31/37 65/63/82 61/59/77
f 61/59/77 65/63/82 63/61/79
f 65/63/82 33/31/37 27/25/28
f 27/25/83 66/64/84 65/63/82
f 65/63/82 66/64/84 63/61/79
f 28/26/31 66/64/84 27/25/32
f 67/65/85 64/62/80 63/61/79
f 63/61/79 66/64/84 67/65/85
f 68/66/86 64/62/80 67/65/85
f 69/67/87 12/10/88 11/9/9
f 69/67/87 70/68/89 12/10/10
f 71/69/90 70/68/91 69/67/87
f 12/10/15 70/68/89 72/70/92
f 12/10/93 72/70/92 15/13/94
f 73/71/95 72/70/92 70/68/89
f 73/71/95 70/68/96 71/69/90
f 15/13/14 72/70/92 74/72/97
f 74/72/98 72/70/92 73/71/95
f 15/13/94 74/72/98 20/18/20
f 73/71/95 75/73/99 74/72/97
f 71/69/90 75/73/99 73/71/95
f 74/72/97 76/74/100 20/18/101
f 74/72/98 75/73/99 76/74/100
f 20/18/102 76/74/100 77/75/103
f 76/74/100 75/73/99 77/75/104
f 20/18/20 77/75/105 18/16/18
f 77/75/104 75/73/99 78/76/106
f 78/76/106 75/73/99 71/69/90
f 18/16/18 77/75/104 79/77/107
f 79/77/107 77/75/104 78/76/108
f 18/16/109 79/77/107 23/21/23
f 23/21/23 79/77/107 80/78/110
f 23/21/23 80/78/110 21/19/21
f 21/19/21 80/78/110 28/26/31
f 81/79/111 80/78/110 79/77/107
f 81/79/111 79/77/107 78/76/106
f 80/78/110 82/80/112 28/26/31
f 81/79/111 82/80/113 80/78/110
f 82/80/112 83/81/114 28/26/31
f 28/26/31 83/81/114 66/64/84
f 84/82/115 82/80/113 81/79/111
f 84/82/115 81/79/111 85/83/116
f 85/83/116 81/79/111 78/76/106
f 71/69/90 85/83/116 78/76/106
f 86/84/117 87/85/118 55/53/69
f 55/53/69 87/85/118 49/47/59
f 50/48/60 49/47/59 87/85/118
f 88/86/119 87/85/118 86/84/117
f 89/87/120 87/85/118 88/86/119
f 51/49/121 87/85/122 89/87/123
f 50/48/124 87/85/125 51/49/126
f 90/88/127 91/89/128 92/90/129
f 92/90/130 91/89/128 93/91/131
f 93/91/131 94/92/132 92/90/130
f 95/93/133 96/94/134 94/92/132
f 94/92/132 96/94/134 97/95/135
f 92/90/130 94/92/132 97/95/135
f 96/94/134 98/96/136 97/95/135
f 97/95/135 98/96/136 99/97/137
f 98/96/136 100/98/138 99/97/137
f 92/90/130 97/95/135 101/99/139
f 101/99/139 90/88/127 92/90/130
f 97/95/135 99/97/137 102/100/140
f 101/99/139 97/95/135 102/100/140
f 103/101/141 90/88/127 101/99/139
f 107/102/142 105/103/143 104/104/144
f 107/102/145 108/105/146 105/103/147
f 105/103/148 108/105/149 106/106/150
f 106/106/151 108/105/152 109/107/153
f 110/108/154 111/109/155 51/49/156
f 109/107/157 111/109/158 110/108/159
f 111/109/160 45/43/161 51/49/162
f 111/109/163 48/46/56 45/43/50
f 48/46/56 112/110/164 46/44/53
f 113/111/165 112/110/164 48/46/56
f 113/111/165 48/46/166 111/109/163
f 114/112/167 112/110/164 113/111/165
f 111/109/163 114/112/168 113/111/165
f 115/113/169 112/110/164 114/112/168
f 116/114/170 111/109/171 109/107/172
f 116/114/173 114/112/168 111/109/163
f 109/107/174 108/105/175 116/114/176
f 117/115/177 114/112/168 116/114/173
f 108/105/178 118/116/179 116/114/173
f 118/116/179 117/115/177 116/114/173
f 108/105/178 107/102/180 118/116/179
f 119/117/181 114/112/168 117/115/177
f 119/117/181 115/113/169 114/112/168
f 119/117/181 117/115/177 118/116/179
f 120/118/182 115/113/169 119/117/181
f 121/119/183 120/118/182 119/117/181
f 100/98/138 120/118/182 121/119/183
f 99/97/137 100/98/138 121/119/183
f 99/97/137 121/119/183 102/100/140
f 121/119/183 119/117/181 122/120/184
f 102/100/140 121/119/183 122/120/184
f 123/121/185 119/117/181 118/116/179
f 122/120/184 119/117/181 123/121/185
f 118/116/186 107/102/180 123/121/185
f 122/120/184 123/121/185 124/122/187
f 123/121/185 107/102/180 125/123/188
f 124/122/187 123/121/185 125/123/188
f 107/102/180 104/104/189 125/123/188
f 126/124/190 122/120/184 124/122/187
f 125/123/188 126/124/190 124/122/187
f 102/100/140 122/120/184 126/124/190
f 102/100/140 126/124/190 127/125/191
f 101/99/139 102/100/140 127/125/191
f 128/126/192 126/124/190 125/123/188
f 128/126/192 127/125/191 126/124/190
f 125/123/188 104/104/189 128/126/192
f 129/127/193 127/125/191 128/126/192
f 104/104/189 129/127/193 128/126/192
f 101/99/139 127/125/191 129/127/193
f 103/101/141 129/127/193 104/104/189
f 103/101/141 101/99/139 129/127/193
f 131/128/194 93/129/195 91/130/196
f 10/131/197 9/132/198 134/133/199
f 134/133/199 9/132/198 135/134/200
f 9/132/198 3/135/201 135/134/200
f 133/136/202 134/133/199 136/137/203
f 134/133/199 135/134/200 136/137/203
f 137/138/204 133/136/202 136/137/203
f 137/138/204 138/139/205 132/140/206
f 137/138/207 136/137/203 139/141/208
f 139/141/208 138/139/209 137/138/207
f 139/141/208 136/137/203 140/142/210
f 140/142/210 136/137/203 141/143/211
f 136/137/203 135/134/200 141/143/211
f 139/141/208 140/142/210 142/144/212
f 139/141/208 142/144/212 138/139/209
f 140/142/210 141/143/211 143/145/213
f 142/144/212 140/142/210 143/145/213
f 138/139/209 142/144/212 144/146/214
f 144/146/214 142/144/212 145/147/215
f 145/147/215 142/144/212 143/145/213
f 144/146/214 146/148/216 138/139/209
f 144/146/214 145/147/215 146/148/216
f 138/139/209 146/148/216 147/149/217
f 147/149/218 132/140/206 138/139/209
f 143/145/213 148/150/219 145/147/220
f 143/145/213 149/151/221 148/150/219
f 150/152/222 149/151/221 143/145/213
f 143/145/213 141/143/211 150/152/222
f 150/152/222 151/153/223 149/151/221
f 141/143/211 135/134/200 150/152/222
f 152/154/224 151/153/223 150/152/225
f 152/154/224 153/155/226 151/153/223
f 135/134/200 154/156/227 150/152/222
f 150/152/222 154/156/227 152/154/224
f 154/156/227 153/155/226 152/154/224
f 135/134/200 3/135/201 154/156/227
f 3/135/201 5/157/228 154/156/229
f 154/156/227 5/157/228 153/155/226
f 132/140/206 155/158/230 130/159/231
f 132/140/206 147/149/217 155/158/230
f 131/128/194 130/159/231 155/158/230
f 147/149/232 156/160/233 155/158/230
f 146/148/216 156/160/233 147/149/217
f 155/158/230 157/161/234 131/128/194
f 157/161/234 93/129/195 131/128/194
f 157/161/234 94/162/235 93/129/195
f 155/158/230 156/160/233 158/163/236
f 158/163/236 157/161/234 155/158/230
f 159/164/237 94/162/235 157/161/234
f 158/163/236 160/165/238 157/161/234
f 160/165/238 159/164/237 157/161/234
f 159/164/239 95/166/240 94/162/235
f 161/167/241 95/166/240 159/164/237
f 162/168/242 161/167/241 159/164/237
f 162/168/242 159/164/237 160/165/238
f 163/169/243 161/167/241 162/168/242
f 160/165/238 163/169/243 162/168/242
f 164/170/244 163/169/243 160/165/238
f 165/171/245 164/170/244 160/165/238
f 160/165/238 158/163/236 165/171/246
f 165/171/245 158/163/236 156/160/233
f 166/172/247 164/170/244 165/171/245
f 165/171/245 156/160/233 146/148/216
f 165/171/245 145/147/215 166/172/247
f 145/147/215 165/171/245 146/148/216
l 1 2
