# Blender v3.0.1 OBJ File: ''
# www.blender.org
mtllib teeth.mtl
o Stank_Gum.003_Stank_Gum.005
v 0.538900 -2.258034 -6.089283
v 0.056000 -2.240532 -6.211683
v 0.227500 -2.307030 -6.215183
v -1.126900 -2.258034 -5.781283
v -0.951900 -2.310532 -6.008783
v -0.731400 -2.261528 -6.033283
v -1.364800 -2.265030 -5.595783
v -1.413800 -2.170532 -5.329783
v 1.046400 -2.286034 -5.812783
v 1.256300 -2.170532 -5.329783
v 0.983400 -2.072533 -5.742784
v 1.721800 -1.771530 -2.533684
v 1.441800 -1.572029 -4.874883
v 1.693800 -1.155632 -2.652683
v 1.445300 -2.135529 -4.951883
v 1.252800 -1.610535 -5.382283
v 1.326300 -2.104034 -4.752383
v 1.434800 -1.733032 -2.537184
v 1.375300 -1.127632 -2.621183
v 1.196900 -1.621033 -5.063883
v 1.207400 -2.265030 -5.595783
v 0.983400 -1.635033 -5.777783
v 1.025400 -2.051529 -5.798783
v 0.857400 -1.929031 -5.819783
v 0.689400 -1.642029 -5.840783
v 0.860900 -1.929031 -5.889783
v 0.769900 -1.957031 -5.970284
v 0.538900 -1.621033 -6.145183
v 0.748900 -1.992035 -5.900283
v 0.720900 -2.272034 -6.022783
v -0.077000 -1.617531 -6.295683
v -0.035000 -1.806534 -6.176683
v -0.392000 -1.852028 -5.942283
v -0.045500 -1.806534 -6.278183
v -0.430400 -1.890533 -6.166183
v -0.696400 -1.621033 -6.145183
v -1.140900 -1.635033 -5.777783
v -0.850400 -1.642029 -5.840783
v -1.354300 -1.621033 -5.063883
v -1.483800 -2.104034 -4.752383
v -1.532800 -1.127632 -2.621183
v -1.602800 -2.135529 -4.951883
v -1.413800 -1.610535 -5.382283
v -1.599300 -1.572029 -4.874883
v -1.879300 -1.771530 -2.533684
v -1.851300 -1.155632 -2.652683
v -1.592300 -1.733032 -2.537184
v 1.361300 -2.737434 -4.559884
v 1.851300 -1.817032 -2.631684
v 1.742800 -2.464432 -2.561684
v 1.448800 -2.139030 -4.843383
v 1.238800 -2.768929 -5.098884
v 1.487300 -1.824028 -2.579184
v 1.417300 -2.457428 -2.530184
v 1.203900 -2.156532 -4.892383
v 1.049900 -2.744431 -4.867884
v 1.301800 -2.247528 -5.259883
v 1.207400 -2.233528 -5.497783
v 0.983400 -2.824928 -5.518784
v 1.042900 -2.275528 -5.641284
v 0.482900 -2.849434 -5.700784
v 0.930900 -2.254532 -5.886283
v 0.678900 -2.877434 -5.763784
v 0.759400 -2.338531 -5.956283
v 0.580900 -2.296532 -6.033283
v 0.496900 -2.474930 -6.001784
v 0.315000 -2.859932 -5.931784
v 0.346500 -2.509933 -6.015784
v 0.248500 -2.324532 -6.138183
v -0.073500 -2.828430 -5.998284
v 0.273000 -2.317535 -6.085783
v -0.077000 -2.345535 -6.176683
v 0.402500 -2.471428 -5.952784
v -0.301000 -2.321030 -6.173183
v 0.542400 -2.411934 -5.959783
v -0.073500 -2.824928 -5.865284
v -0.524900 -2.310532 -6.064783
v -0.640400 -2.849434 -5.700784
v -0.472400 -2.859932 -5.931784
v -0.769900 -2.296532 -6.029783
v -0.836400 -2.877434 -5.763784
v -0.916900 -2.338531 -5.956283
v -1.088400 -2.254532 -5.886283
v -1.140900 -2.824928 -5.518784
v -1.200400 -2.275528 -5.641284
v -1.210900 -2.744431 -4.867884
v -1.368300 -2.233528 -5.497783
v -1.396300 -2.768929 -5.098884
v -1.361300 -2.156532 -4.892383
v -1.574800 -2.457428 -2.530184
v -1.459300 -2.247528 -5.259883
v -1.606300 -2.139030 -4.843383
v -1.518800 -2.737434 -4.559884
v -2.008800 -1.817032 -2.631684
v -1.900300 -2.464432 -2.561684
v -1.644800 -1.824028 -2.579184
v 0.710400 -2.265030 -5.994783
v 0.787400 -2.516930 -2.383183
v 0.857400 -2.268532 -2.631684
v 0.535400 -2.083031 -2.061183
v 0.633400 -1.740028 -2.316684
v -0.077000 -1.684029 -2.211683
v -0.077000 -2.093529 -2.001784
v -0.692900 -2.083031 -2.061183
v 0.941400 -1.491631 -3.051583
v 0.353500 -1.302635 -2.999083
v 1.088400 -1.967529 -3.163584
v 0.899400 -2.272034 -3.226583
v 1.095400 -1.680534 -4.125983
v 0.622900 -1.456635 -4.174984
v 1.042900 -1.978035 -4.027983
v 0.675400 -2.128532 -5.081383
v 0.717400 -1.897530 -5.137383
v 0.752400 -2.153030 -3.971983
v -0.077000 -2.342033 -3.356084
v 0.388500 -2.272034 -4.983383
v -0.077000 -2.181030 -3.940484
v -0.077000 -2.265030 -4.976383
v 0.196000 -2.293030 -5.322783
v -0.077000 -2.293030 -5.291283
v 0.409400 -2.202034 -5.529284
v 0.136500 -2.261528 -5.711283
v -0.077000 -2.272034 -5.739283
v 0.454900 -1.985031 -5.644783
v 0.367500 -1.754028 -5.088383
v 0.164500 -2.034035 -5.851283
v 0.241500 -1.855530 -5.564283
v -0.077000 -2.048035 -5.879283
v -0.077000 -1.855530 -5.532784
v -0.294000 -2.261528 -5.711283
v -0.322000 -2.034035 -5.851283
v -0.402500 -1.855530 -5.564283
v -0.612400 -1.985031 -5.644783
v -0.077000 -1.754028 -5.053383
v -0.524900 -1.754028 -5.088383
v -0.077000 -1.488129 -4.157483
v -0.077000 -1.379631 -2.957083
v -0.510900 -1.302635 -2.999083
v -0.790900 -1.740028 -2.316684
v -0.948400 -2.516930 -2.383183
v -1.014900 -2.268532 -2.631684
v -1.102400 -1.491631 -3.051583
v -1.245800 -1.967529 -3.163584
v -1.056900 -2.272034 -3.226583
v -1.252800 -1.680534 -4.125983
v -1.200400 -1.978035 -4.027983
v -0.909900 -2.153030 -3.971983
v -0.545900 -2.272034 -4.983383
v -0.832900 -2.128532 -5.081383
v -0.353500 -2.293030 -5.322783
v -0.566900 -2.202034 -5.529284
v -0.874900 -1.897530 -5.137383
v -0.780400 -1.456635 -4.174984
vt 0.877800 0.975500
vt 0.868300 0.975700
vt 0.870900 0.976500
vt 0.826700 0.973800
vt 0.833300 0.976500
vt 0.836500 0.976900
vt 0.819300 0.976000
vt 0.813900 0.977500
vt 0.896300 0.976500
vt 0.907700 0.975100
vt 0.893700 0.976200
vt 0.991400 0.973800
vt 0.924400 0.957600
vt 0.991400 0.957000
vt 0.918100 0.974700
vt 0.908200 0.957600
vt 0.921700 0.979500
vt 0.987300 0.978300
vt 0.991400 0.994800
vt 0.985300 0.994900
vt 0.911300 0.994900
vt 0.901900 0.975700
vt 0.894000 0.957500
vt 0.894400 0.972400
vt 0.889200 0.978900
vt 0.883700 0.994900
vt 0.888900 0.971800
vt 0.885700 0.972000
vt 0.877500 0.957400
vt 0.886300 0.978300
vt 0.880200 0.977500
vt 0.859800 0.957400
vt 0.860200 0.979600
vt 0.849200 0.981500
vt 0.860100 0.970400
vt 0.848500 0.969800
vt 0.842000 0.957400
vt 0.825500 0.957600
vt 0.836600 0.994900
vt 0.808800 0.994900
vt 0.798200 0.979800
vt 0.733600 0.994900
vt 0.801700 0.975300
vt 0.811300 0.957700
vt 0.794900 0.957700
vt 0.727000 0.976100
vt 0.727000 0.957200
vt 0.731900 0.979200
vt 0.727000 0.994800
vt 0.929100 0.949400
vt 0.990500 0.926000
vt 0.990800 0.949200
vt 0.919800 0.929900
vt 0.910900 0.949400
vt 0.985100 0.922800
vt 0.990700 0.906900
vt 0.981400 0.906900
vt 0.914500 0.924000
vt 0.907100 0.906900
vt 0.906400 0.932500
vt 0.899100 0.931600
vt 0.895000 0.949400
vt 0.892900 0.930300
vt 0.876100 0.906900
vt 0.886300 0.929600
vt 0.883100 0.949500
vt 0.882400 0.928800
vt 0.878600 0.930000
vt 0.875400 0.933400
vt 0.871000 0.949500
vt 0.871400 0.933700
vt 0.866600 0.930700
vt 0.859400 0.949400
vt 0.867500 0.929000
vt 0.858400 0.929400
vt 0.873100 0.926800
vt 0.853200 0.931100
vt 0.877000 0.928900
vt 0.859100 0.906900
vt 0.846800 0.929700
vt 0.841800 0.906900
vt 0.847600 0.949500
vt 0.840400 0.929900
vt 0.835700 0.949600
vt 0.836400 0.928500
vt 0.832200 0.929600
vt 0.823700 0.949500
vt 0.825500 0.930200
vt 0.810700 0.906900
vt 0.819500 0.931700
vt 0.807900 0.949500
vt 0.803500 0.924300
vt 0.735500 0.906900
vt 0.812200 0.932500
vt 0.798600 0.930300
vt 0.790100 0.949600
vt 0.727900 0.931100
vt 0.727700 0.949600
vt 0.733000 0.924900
vt 0.727700 0.906900
vt 0.879800 0.976400
vt 0.704800 0.791300
vt 0.701800 0.776000
vt 0.681200 0.790200
vt 0.678900 0.775300
vt 0.657300 0.778200
vt 0.657200 0.793300
vt 0.633700 0.790100
vt 0.681900 0.753900
vt 0.667800 0.755500
vt 0.695300 0.752900
vt 0.707800 0.753100
vt 0.683200 0.729800
vt 0.672200 0.730400
vt 0.690500 0.729300
vt 0.677500 0.705300
vt 0.673500 0.708600
vt 0.699400 0.726000
vt 0.736300 0.726800
vt 0.682700 0.698500
vt 0.720800 0.706300
vt 0.686700 0.683100
vt 0.673900 0.691500
vt 0.674100 0.681900
vt 0.669500 0.697500
vt 0.663800 0.692900
vt 0.657700 0.689300
vt 0.666500 0.700800
vt 0.666300 0.711400
vt 0.661700 0.697800
vt 0.663100 0.703100
vt 0.657700 0.696800
vt 0.657700 0.703700
vt 0.651700 0.692900
vt 0.641400 0.681800
vt 0.653600 0.697800
vt 0.652300 0.703100
vt 0.648900 0.700800
vt 0.657600 0.712500
vt 0.649100 0.711400
vt 0.657600 0.730900
vt 0.657500 0.757100
vt 0.647300 0.755500
vt 0.636000 0.775200
vt 0.610800 0.791200
vt 0.613700 0.775900
vt 0.633200 0.753800
vt 0.620100 0.752800
vt 0.607600 0.753000
vt 0.632100 0.729700
vt 0.624900 0.729200
vt 0.616000 0.725900
vt 0.579400 0.726600
vt 0.594600 0.706200
vt 0.632700 0.698500
vt 0.637900 0.705200
vt 0.628700 0.683000
vt 0.641400 0.691400
vt 0.646000 0.697400
vt 0.641900 0.708600
vt 0.643100 0.730300
vn -0.2169 -0.6000 0.7700
vn 0.2409 -0.8886 0.3903
vn 0.3132 -0.8752 0.3686
vn -0.8095 -0.3844 0.4437
vn 0.9929 0.0226 -0.1168
vn 0.9754 0.0358 -0.2175
vn 0.5858 -0.8099 -0.0285
vn 0.9929 0.0221 -0.1169
vn 0.8989 0.0562 -0.4346
vn -0.1279 -0.9772 0.1692
vn -0.6298 -0.7584 0.1678
vn -0.1280 -0.9772 0.1692
vn -0.5590 -0.4510 0.6958
vn 0.0136 0.1903 0.9816
vn 0.0839 0.1591 0.9837
vn -0.6726 0.0236 0.7396
vn -0.9322 -0.2518 0.2600
vn 0.4492 -0.8927 0.0351
vn 0.8951 -0.0361 -0.4443
vn 0.5764 -0.8067 -0.1304
vn 0.7165 0.0893 -0.6918
vn 0.5764 -0.8067 -0.1305
vn 0.4492 -0.8928 0.0351
vn 0.6452 -0.0565 -0.7619
vn -0.8775 -0.4647 -0.1187
vn 0.4492 -0.8927 0.0350
vn 0.2528 -0.1776 -0.9511
vn 0.6453 -0.0567 -0.7619
vn 0.6452 -0.0567 -0.7619
vn 0.2528 -0.1777 -0.9511
vn -0.8775 -0.4647 -0.1186
vn -0.5976 -0.6798 0.4252
vn -0.5976 -0.6798 0.4251
vn -0.5038 -0.4238 0.7527
vn 0.2529 -0.1775 -0.9511
vn -0.5976 -0.6799 0.4250
vn 0.4933 -0.3212 -0.8084
vn 0.4932 -0.3214 -0.8084
vn 0.7864 -0.2026 -0.5836
vn 0.7166 0.0893 -0.6918
vn 0.4340 -0.0090 -0.9009
vn 0.4932 -0.3214 -0.8083
vn 0.1864 -0.6352 0.7495
vn 0.7864 -0.2026 -0.5835
vn 0.1864 -0.6353 0.7494
vn 0.4884 -0.8723 0.0244
vn 0.5524 -0.0710 -0.8306
vn 0.5524 -0.0711 -0.8306
vn 0.3607 -0.0817 -0.9291
vn 0.2054 -0.0830 -0.9752
vn -0.0413 -0.0889 -0.9952
vn -0.3481 -0.2266 0.9097
vn -0.2530 -0.9045 0.3433
vn -0.7491 -0.5703 -0.3369
vn 0.2504 -0.7143 0.6535
vn -0.5039 -0.4238 0.7527
vn -0.7491 -0.5703 -0.3370
vn -0.2588 -0.4211 -0.8693
vn -0.2530 -0.9045 0.3434
vn 0.2504 -0.7142 0.6536
vn -0.2589 -0.4212 -0.8692
vn 0.2054 -0.0830 -0.9751
vn 0.1483 -0.6626 -0.7341
vn 0.1482 -0.6626 -0.7341
vn -0.3802 -0.0699 -0.9223
vn 0.5342 -0.7566 -0.3771
vn -0.5275 -0.0441 -0.8484
vn -0.7260 0.0750 -0.6836
vn -0.7155 -0.0122 -0.6985
vn 0.4671 -0.3143 0.8264
vn 0.4671 -0.3143 0.8265
vn 0.6910 -0.2445 0.6802
vn 0.4784 -0.6881 0.5456
vn 0.9310 -0.2437 0.2716
vn 0.6298 -0.7584 0.1678
vn 0.6726 0.0236 0.7396
vn -0.7070 -0.6956 -0.1274
vn 0.4784 -0.6881 0.5455
vn -0.8990 0.0530 -0.4347
vn -0.8310 0.0243 -0.5557
vn -0.8951 -0.0416 -0.4438
vn -0.7155 -0.0124 -0.6985
vn -0.9760 0.0355 -0.2150
vn -0.9929 0.0226 -0.1168
vn -0.0302 -0.9878 0.1529
vn -0.0301 -0.9878 0.1529
vn 0.5590 -0.4510 0.6958
vn -0.0839 0.1591 0.9837
vn -0.0136 0.1903 0.9816
vn 0.9613 -0.2172 -0.1698
vn 0.6999 0.5928 0.3984
vn 0.9705 -0.1800 -0.1607
vn 0.7352 0.6086 -0.2985
vn 0.6999 0.5927 0.3984
vn 0.9612 -0.2172 -0.1698
vn 0.9100 -0.2499 -0.3309
vn 0.7352 0.6086 -0.2984
vn -0.4711 0.6606 0.5845
vn -0.4711 0.6606 0.5846
vn 0.1113 0.0715 0.9912
vn -0.6587 0.1461 0.7381
vn -0.6042 0.7961 -0.0349
vn -0.6042 0.7961 -0.0350
vn -0.9094 0.3609 0.2069
vn 0.8511 0.4189 -0.3166
vn 0.8511 0.4189 -0.3165
vn 0.6122 0.5798 -0.5377
vn 0.6122 0.5798 -0.5376
vn 0.7495 -0.3166 -0.5814
vn 0.1587 0.8760 -0.4555
vn -0.4456 0.5879 0.6751
vn 0.3349 0.7495 -0.5711
vn 0.4875 -0.3647 -0.7933
vn 0.1588 0.8760 -0.4554
vn -0.1208 0.6754 -0.7275
vn 0.3349 0.7495 -0.5710
vn -0.1634 0.8482 -0.5038
vn -0.1636 0.8482 -0.5038
vn 0.0173 0.1613 -0.9868
vn 0.2681 -0.3255 -0.9067
vn 0.4823 -0.0499 -0.8746
vn 0.3719 0.5058 -0.7784
vn 0.0129 -0.3572 -0.9339
vn 0.4881 0.8408 0.2341
vn 0.1406 0.8075 -0.5729
vn 0.1407 0.8073 -0.5731
vn 0.4880 0.8409 0.2338
vn 0.3719 0.5055 -0.7786
vn -0.1330 0.9122 0.3875
vn 0.4824 -0.0499 -0.8745
vn 0.1407 0.8075 -0.5729
vn -0.1331 0.9124 0.3872
vn 0.0173 0.1610 -0.9868
vn 0.4824 -0.0502 -0.8745
vn -0.1211 0.5983 -0.7920
vn -0.4906 0.6350 0.5967
vn -0.1635 0.8482 -0.5037
vn 0.0173 0.1612 -0.9868
vn -0.4906 0.6348 0.5969
vn 0.0171 0.1615 -0.9867
vn -0.1329 0.9121 0.3878
vn -0.1635 0.8482 -0.5038
vn -0.4907 0.6350 0.5967
vn -0.1207 0.6754 -0.7275
vn -0.0034 0.5336 0.8457
vn -0.1924 0.9410 -0.2784
vn 0.4445 0.5897 0.6743
vn 0.1407 0.8074 -0.5730
vn -0.1213 0.5982 -0.7921
vn -0.1924 0.9410 -0.2786
vn -0.1212 0.5983 -0.7920
vn -0.2692 -0.3358 -0.9027
vn -0.1923 0.9410 -0.2784
vn -0.2916 0.8224 -0.4885
vn -0.4900 -0.3695 -0.7895
vn -0.1924 0.9409 -0.2786
vn -0.2916 0.8223 -0.4886
vn 0.0524 0.6990 -0.7132
vn 0.0525 0.6990 -0.7132
vn -0.3349 0.7495 -0.5710
vn -0.3349 0.7495 -0.5711
vn -0.7482 -0.3184 -0.5821
vn -0.1515 0.8757 -0.4585
vn -0.1515 0.8757 -0.4584
vn 0.9108 0.3567 0.2077
vn -0.6159 0.5759 -0.5376
vn -0.9102 -0.2513 -0.3293
vn 0.6062 0.7946 -0.0348
vn 0.6588 0.1456 0.7381
vn -0.8540 0.4181 -0.3096
vn -0.7352 0.6086 -0.2985
vn 0.6062 0.7946 -0.0347
vn -0.9613 -0.2172 -0.1698
vn -0.9612 -0.2172 -0.1698
vn -0.6999 0.5927 0.3984
vn -0.6999 0.5928 0.3984
vn -0.9705 -0.1800 -0.1607
vn 0.4711 0.6606 0.5845
vn -0.7352 0.6086 -0.2984
vn 0.4711 0.6606 0.5846
vn 0.6588 0.1455 0.7381
vn -0.1113 0.0715 0.9912
vn -0.3212 -0.2690 0.9080
vn -0.4589 -0.3760 0.8050
vn 0.2051 -0.6522 0.7298
vn 0.2050 -0.6525 0.7296
vn -0.4590 -0.3762 0.8049
vn 0.3284 -0.8801 0.3429
vn 0.2051 -0.6522 0.7297
vn 0.3284 -0.8800 0.3431
vn 0.8802 0.1879 0.4357
vn 0.9139 0.0494 0.4030
vn 0.5571 0.3747 0.7411
vn 0.5656 0.5459 0.6181
vn 0.0004 0.7160 0.6981
vn 0.0002 0.4563 0.8898
vn -0.5566 0.3765 0.7406
vn 0.7038 0.6680 0.2418
vn 0.0810 0.9818 0.1719
vn 0.9773 -0.1243 0.1718
vn 0.6565 -0.7512 -0.0680
vn 0.8838 0.4108 -0.2240
vn 0.2139 0.9507 -0.2247
vn 0.8310 -0.5360 -0.1486
vn 0.8311 -0.5360 -0.1486
vn 0.7397 -0.6229 -0.2546
vn 0.8024 0.3792 -0.4608
vn 0.2929 -0.9495 -0.1129
vn 0.6565 -0.7512 -0.0681
vn 0.0551 -0.9730 -0.2243
vn 0.2168 -0.9762 -0.0020
vn 0.0234 -0.9956 -0.0902
vn 0.0234 -0.9957 -0.0902
vn -0.0087 -0.9968 0.0793
vn 0.1278 -0.9907 -0.0460
vn 0.0109 -0.9998 0.0156
vn 0.5903 -0.7121 -0.3802
vn 0.2168 -0.9762 -0.0021
vn 0.1278 -0.9907 -0.0461
vn 0.2714 -0.8170 -0.5087
vn 0.2714 -0.8171 -0.5086
vn 0.5903 -0.7120 -0.3802
vn 0.2714 -0.8171 -0.5087
vn 0.0009 -0.8504 -0.5261
vn 0.7141 0.2477 -0.6548
vn 0.8024 0.3792 -0.4607
vn 0.1540 0.9407 -0.3024
vn 0.3041 0.1978 -0.9319
vn 0.1595 0.9080 -0.3874
vn 0.0007 0.2129 -0.9771
vn -0.0003 0.9359 -0.3522
vn -0.2706 -0.8171 -0.5090
vn -0.0108 -0.9998 0.0156
vn -0.3032 0.1973 -0.9323
vn -0.3032 0.1974 -0.9323
vn -0.1633 0.9074 -0.3873
vn -0.7148 0.2463 -0.6545
vn -0.3032 0.1972 -0.9323
vn -0.0001 0.9690 -0.2471
vn -0.1540 0.9407 -0.3023
vn -0.0001 0.9774 -0.2114
vn -0.0006 0.9860 0.1668
vn -0.0809 0.9818 0.1721
vn -0.5646 0.5459 0.6190
vn -0.5646 0.5459 0.6191
vn -0.8798 0.1971 0.4325
vn -0.9139 0.0506 0.4027
vn -0.7052 0.6664 0.2419
vn -0.9771 -0.1273 0.1706
vn -0.6564 -0.7513 -0.0679
vn -0.8838 0.4105 -0.2246
vn -0.8310 -0.5360 -0.1486
vn -0.8838 0.4106 -0.2244
vn -0.2928 -0.9495 -0.1129
vn -0.0548 -0.9730 -0.2244
vn -0.0220 -0.9957 -0.0902
vn -0.2169 -0.9762 -0.0020
vn -0.0232 -0.9957 -0.0902
vn -0.7397 -0.6229 -0.2546
vn 0.0086 -0.9968 0.0793
vn -0.1278 -0.9907 -0.0460
vn -0.5903 -0.7121 -0.3802
vn -0.8024 0.3792 -0.4608
vn -0.8838 0.4105 -0.2245
vn -0.8024 0.3792 -0.4609
vn -0.7148 0.2463 -0.6546
vn -0.2138 0.9506 -0.2249
vn -0.7052 0.6665 0.2419
vn -0.0809 0.9817 0.1721
usemtl Tex_0893_0_dds
s 1
f 1/1/1 2/2/1 3/3/1
f 4/4/2 5/5/2 6/6/2
f 7/7/3 4/4/3 8/8/3
f 9/9/4 10/10/4 11/11/4
f 12/12/5 13/13/6 14/14/5
f 15/15/7 13/13/6 12/12/8
f 15/15/7 16/16/9 13/13/6
f 15/15/7 12/12/10 17/17/11
f 17/17/11 12/12/12 18/18/13
f 12/12/14 14/19/15 18/18/13
f 19/20/16 17/17/11 18/18/13
f 18/18/13 14/19/15 19/20/16
f 20/21/17 17/17/11 19/20/16
f 15/15/7 17/17/11 10/10/18
f 10/10/18 17/17/11 20/21/17
f 10/10/18 16/16/9 15/15/19
f 10/10/18 21/22/20 16/16/9
f 22/23/21 16/16/9 21/22/20
f 21/22/22 10/10/23 9/9/24
f 11/11/25 10/10/26 20/21/17
f 23/24/27 21/22/20 9/9/28
f 9/9/29 11/11/25 23/24/30
f 22/23/21 21/22/20 23/24/27
f 11/11/31 24/25/32 23/24/30
f 11/11/25 20/21/17 24/25/33
f 25/26/34 24/25/33 20/21/17
f 23/24/35 24/25/36 26/27/37
f 26/27/38 22/23/21 23/24/27
f 27/28/39 22/23/40 26/27/38
f 28/29/41 22/23/21 27/28/39
f 26/27/42 29/30/43 27/28/44
f 24/25/36 29/30/45 26/27/46
f 24/25/33 25/26/34 29/30/43
f 29/30/45 30/31/47 27/28/39
f 30/31/48 28/29/41 27/28/39
f 28/29/41 30/31/48 1/1/49
f 1/1/49 3/3/50 28/29/41
f 31/32/51 28/29/41 3/3/50
f 25/26/34 1/1/52 29/30/45
f 25/26/34 32/33/53 1/1/52
f 1/1/52 32/33/53 2/2/54
f 33/34/55 32/33/53 25/26/56
f 2/2/57 32/33/53 34/35/58
f 2/2/54 34/35/58 3/3/50
f 32/33/59 33/34/60 34/35/61
f 3/3/62 34/35/58 31/32/51
f 35/36/63 31/32/51 34/35/58
f 33/34/55 35/36/64 34/35/58
f 31/32/51 35/36/64 36/37/65
f 6/6/66 36/37/65 35/36/64
f 33/34/55 6/6/66 35/36/64
f 36/37/65 6/6/66 5/5/67
f 36/37/65 5/5/67 37/38/68
f 4/4/69 37/38/68 5/5/67
f 38/39/70 6/6/66 33/34/55
f 38/39/71 33/34/55 25/26/34
f 6/6/66 38/39/70 4/4/72
f 38/39/70 8/8/73 4/4/72
f 39/40/74 8/8/73 38/39/70
f 8/8/73 39/40/74 40/41/75
f 41/42/76 40/41/75 39/40/74
f 42/43/77 8/8/78 40/41/75
f 8/8/73 43/44/79 7/7/80
f 42/43/77 43/44/79 8/8/81
f 37/38/68 7/7/80 43/44/79
f 37/38/68 4/4/82 7/7/80
f 44/45/83 43/44/79 42/43/77
f 44/45/83 45/46/84 46/47/84
f 42/43/77 45/46/85 44/45/83
f 40/41/75 45/46/86 42/43/77
f 47/48/87 45/46/86 40/41/75
f 47/48/87 40/41/75 41/42/76
f 46/49/88 47/48/87 41/42/76
f 45/46/89 47/48/87 46/49/88
f 48/50/90 49/51/91 50/52/92
f 51/53/93 49/51/94 48/50/95
f 51/53/93 48/50/90 52/54/96
f 49/51/91 51/53/97 53/55/98
f 53/55/99 50/56/100 49/51/91
f 54/57/101 50/56/100 53/55/99
f 55/58/102 54/57/101 53/55/99
f 53/55/99 51/53/93 55/58/103
f 56/59/104 54/57/101 55/58/103
f 57/60/105 55/58/103 51/53/93
f 57/60/106 51/53/93 52/54/96
f 58/61/107 57/60/105 52/54/96
f 58/61/108 52/54/96 59/62/109
f 58/61/107 55/58/103 57/60/105
f 55/58/103 60/63/110 56/59/104
f 60/63/110 55/58/103 58/61/108
f 60/63/110 58/61/107 59/62/109
f 56/59/104 60/63/110 61/64/111
f 62/65/112 60/63/110 59/62/109
f 62/65/112 59/62/109 63/66/113
f 60/63/114 64/67/115 61/64/111
f 64/67/115 60/63/110 62/65/116
f 64/67/115 62/65/116 63/66/113
f 65/68/117 64/67/115 63/66/113
f 65/68/118 63/66/113 66/69/119
f 66/69/119 63/66/113 67/70/120
f 66/69/119 67/70/120 68/71/121
f 69/72/122 68/71/121 67/70/120
f 69/72/122 67/70/120 70/73/123
f 71/74/124 68/71/121 69/72/122
f 69/72/122 70/73/123 72/75/125
f 72/75/126 71/74/127 69/72/128
f 73/76/129 68/71/130 71/74/124
f 71/74/124 72/75/131 73/76/129
f 73/76/132 66/69/133 68/71/134
f 74/77/135 72/75/125 70/73/123
f 75/78/136 65/68/137 66/69/138
f 75/78/139 66/69/140 73/76/141
f 64/67/115 65/68/142 75/78/143
f 64/67/144 75/78/143 61/64/111
f 73/76/129 61/64/111 75/78/143
f 61/64/111 73/76/129 76/79/145
f 76/79/145 73/76/129 72/75/131
f 72/75/131 77/80/146 76/79/145
f 76/79/145 77/80/146 78/81/147
f 72/75/148 74/77/149 77/80/150
f 74/77/151 70/73/123 79/82/152
f 74/77/151 79/82/152 77/80/146
f 77/80/153 79/82/152 80/83/154
f 80/83/154 79/82/152 81/84/155
f 77/80/156 80/83/157 82/85/158
f 80/83/154 81/84/155 82/85/159
f 82/85/159 78/81/147 77/80/146
f 82/85/159 81/84/155 83/86/160
f 83/86/161 81/84/155 84/87/162
f 85/88/163 78/81/147 82/85/159
f 82/85/159 83/86/160 85/88/163
f 83/86/161 84/87/162 85/88/164
f 86/89/165 78/81/147 85/88/164
f 85/88/163 84/87/162 87/90/166
f 87/90/166 84/87/162 88/91/167
f 89/92/168 86/89/165 85/88/163
f 85/88/163 87/90/166 89/92/168
f 89/92/168 90/93/169 86/89/165
f 87/90/166 91/94/170 89/92/168
f 87/90/166 88/91/167 91/94/170
f 91/94/170 88/91/167 92/95/171
f 91/94/170 92/95/171 89/92/172
f 92/95/171 88/91/167 93/96/173
f 92/95/171 93/96/174 94/97/175
f 94/97/176 93/96/173 95/98/177
f 96/99/178 92/95/179 94/97/176
f 89/92/168 92/95/171 96/99/180
f 96/99/180 90/93/181 89/92/172
f 90/93/169 96/99/180 95/100/182
f 95/100/182 96/99/180 94/97/176
f 29/30/183 1/1/184 97/101/185
f 97/101/186 1/1/187 30/31/188
f 97/101/189 30/31/190 29/30/183
f 98/102/191 99/103/192 100/104/193
f 100/104/193 99/103/192 101/105/194
f 101/105/194 102/106/195 100/104/193
f 100/104/193 102/106/195 103/107/196
f 102/106/195 104/108/197 103/107/196
f 101/105/194 99/103/192 105/109/198
f 102/106/195 101/105/194 106/110/199
f 106/110/199 101/105/194 105/109/198
f 105/109/198 99/103/192 107/111/200
f 108/112/201 107/111/200 99/103/192
f 109/113/202 105/109/198 107/111/200
f 105/109/198 110/114/203 106/110/199
f 109/113/202 110/114/203 105/109/198
f 109/113/202 107/111/200 111/115/204
f 107/111/200 108/112/201 111/115/205
f 112/116/206 109/113/202 111/115/205
f 113/117/207 110/114/203 109/113/202
f 113/117/207 109/113/202 112/116/206
f 114/118/208 112/116/206 111/115/205
f 111/115/205 108/112/201 114/118/208
f 108/112/209 115/119/210 114/118/208
f 116/120/211 112/116/206 114/118/208
f 114/118/208 117/121/212 116/120/211
f 114/118/208 115/119/210 117/121/213
f 116/120/211 117/121/212 118/122/214
f 118/122/214 119/123/215 116/120/211
f 120/124/216 119/123/215 118/122/214
f 121/125/217 116/120/218 119/123/219
f 119/123/215 120/124/216 122/126/220
f 119/123/215 122/126/221 121/125/217
f 112/116/206 116/120/211 121/125/222
f 122/126/223 120/124/216 123/127/224
f 121/125/217 113/117/207 112/116/206
f 124/128/225 113/117/226 121/125/217
f 121/125/217 122/126/223 124/128/225
f 113/117/207 124/128/225 125/129/227
f 125/129/227 110/114/203 113/117/207
f 124/128/225 122/126/223 126/130/228
f 125/129/227 124/128/225 127/131/229
f 124/128/225 126/130/228 127/131/229
f 126/130/228 122/126/223 128/132/230
f 128/132/230 122/126/223 123/127/224
f 126/130/228 129/133/231 127/131/229
f 128/132/230 129/133/231 126/130/228
f 130/134/232 128/132/230 123/127/224
f 123/127/224 120/135/233 130/134/232
f 131/136/234 128/132/230 130/134/232
f 128/132/230 131/136/234 129/133/231
f 129/133/231 131/136/235 132/137/236
f 133/138/237 132/137/236 131/136/234
f 131/136/238 130/134/232 133/138/237
f 132/137/236 134/139/239 129/133/231
f 134/139/239 127/131/229 129/133/231
f 125/129/227 127/131/229 134/139/239
f 135/140/240 134/139/239 132/137/236
f 133/138/237 135/140/240 132/137/236
f 136/141/241 125/129/227 134/139/239
f 134/139/239 135/140/240 136/141/241
f 110/114/203 125/129/227 136/141/241
f 110/114/203 136/141/241 106/110/199
f 106/110/199 136/141/241 137/142/242
f 137/142/242 102/106/195 106/110/199
f 136/141/241 138/143/243 137/142/242
f 137/142/242 138/143/243 102/106/195
f 102/106/195 138/143/243 139/144/244
f 139/144/245 104/108/197 102/106/195
f 140/145/246 104/108/197 141/146/247
f 141/146/247 104/108/197 139/144/245
f 142/147/248 141/146/247 139/144/245
f 139/144/245 138/143/243 142/147/248
f 143/148/249 141/146/247 142/147/248
f 144/149/250 141/146/247 143/148/249
f 145/150/251 143/148/249 142/147/248
f 143/148/249 146/151/252 144/149/250
f 145/150/253 146/151/252 143/148/249
f 144/149/250 146/151/252 147/152/254
f 144/149/250 147/152/254 115/153/255
f 115/153/255 147/152/254 117/154/256
f 147/152/254 148/155/257 117/154/258
f 149/156/259 147/152/254 146/151/252
f 146/151/252 145/150/251 149/156/259
f 148/155/257 147/152/254 149/156/259
f 117/154/258 148/155/257 118/157/260
f 148/155/257 150/158/261 118/157/260
f 118/157/260 150/158/261 120/135/233
f 130/134/232 120/135/233 150/158/261
f 148/155/257 151/159/262 150/158/261
f 149/156/259 151/159/262 148/155/257
f 150/158/261 151/159/262 130/134/232
f 133/138/237 130/134/232 151/159/262
f 149/156/259 152/160/263 151/159/262
f 149/156/259 145/150/264 152/160/263
f 151/159/262 152/160/265 133/138/237
f 152/160/265 135/140/240 133/138/266
f 153/161/267 152/160/263 145/150/251
f 145/150/251 142/147/268 153/161/267
f 153/161/267 142/147/248 138/143/243
f 153/161/267 138/143/269 136/141/241
f 136/141/241 135/140/240 153/161/267
f 135/140/240 152/160/263 153/161/267
